<?xml version="1.0" encoding="utf-8"?>
<!-- Generator: Adobe Illustrator 21.0.0, SVG Export Plug-In . SVG Version: 6.00 Build 0)  -->
<svg version="1.1" id="Layer_1" xmlns="http://www.w3.org/2000/svg" xmlns:xlink="http://www.w3.org/1999/xlink" x="0px" y="0px"
	 viewBox="0 0 70 70" style="enable-background:new 0 0 70 70;" xml:space="preserve">
<style type="text/css">
	.st0{fill:#069c41;}
</style>
<g>
	<path class="st0" d="M8.6,62c-0.8,0-1.5-0.7-1.5-1.5v-51C7.1,8.7,7.8,8,8.6,8s1.5,0.7,1.5,1.5v51C10.1,61.3,9.4,62,8.6,62z"/>
</g>
<g>
	<path class="st0" d="M61.4,62H8.6c-0.8,0-1.5-0.7-1.5-1.5S7.8,59,8.6,59h52.8c0.8,0,1.5,0.7,1.5,1.5S62.2,62,61.4,62z"/>
</g>
<g>
	<path class="st0" d="M15.2,51.5c-0.3,0-0.7-0.1-0.9-0.3c-0.6-0.5-0.7-1.5-0.2-2.1L25.4,35c0.3-0.3,0.6-0.5,1-0.6
		c0.4,0,0.8,0.1,1.1,0.4l9.6,8.6l15.6-21.6h-9.7c-0.8,0-1.5-0.7-1.5-1.5s0.7-1.5,1.5-1.5h12.7c0.6,0,1.1,0.3,1.3,0.8
		c0.3,0.5,0.2,1.1-0.1,1.6L38.6,46.5c-0.2,0.3-0.6,0.6-1.1,0.6c-0.4,0-0.8-0.1-1.2-0.4l-9.7-8.7L16.4,50.9
		C16.1,51.3,15.7,51.5,15.2,51.5z"/>
</g>
<g>
	<path class="st0" d="M56.6,34.7c-0.8,0-1.5-0.7-1.5-1.5V20.3c0-0.8,0.7-1.5,1.5-1.5s1.5,0.7,1.5,1.5v12.8
		C58.1,34,57.4,34.7,56.6,34.7z"/>
</g>
</svg>
