<?xml version="1.0" encoding="utf-8"?>
<!-- Generator: Adobe Illustrator 21.0.0, SVG Export Plug-In . SVG Version: 6.00 Build 0)  -->
<svg version="1.1" id="Layer_1" xmlns="http://www.w3.org/2000/svg" xmlns:xlink="http://www.w3.org/1999/xlink" x="0px" y="0px"
	 viewBox="0 0 70 70" style="enable-background:new 0 0 70 70;" xml:space="preserve">
<style type="text/css">
	.st0{fill:#069c41;}
</style>
<g>
	<g>
		<path class="st0" d="M56.5,64.8h-43c-4.1,0-7.5-3.4-7.5-7.5V23.6c0-4.1,3.4-7.5,7.5-7.5h43c4.1,0,7.5,3.4,7.5,7.5v33.7
			C64,61.4,60.6,64.8,56.5,64.8z M13.5,19.1c-2.5,0-4.5,2-4.5,4.5v33.7c0,2.5,2,4.5,4.5,4.5h43c2.5,0,4.5-2,4.5-4.5V23.6
			c0-2.5-2-4.5-4.5-4.5H13.5z"/>
	</g>
	<g>
		<path class="st0" d="M47.6,18.6c-0.8,0-1.5-0.7-1.5-1.5v-6.4c0-1.4-1.1-2.5-2.5-2.5H26.4c-1.4,0-2.5,1.1-2.5,2.5v6.4
			c0,0.8-0.7,1.5-1.5,1.5s-1.5-0.7-1.5-1.5v-6.4c0-3,2.5-5.5,5.5-5.5h17.2c3,0,5.5,2.5,5.5,5.5v6.4C49.1,17.9,48.4,18.6,47.6,18.6z"
			/>
	</g>
	<g>
		<path class="st0" d="M35,51.3c-0.8,0-1.5-0.7-1.5-1.5V30.9c0-0.8,0.7-1.5,1.5-1.5s1.5,0.7,1.5,1.5v18.8
			C36.5,50.6,35.8,51.3,35,51.3z"/>
	</g>
	<g>
		<path class="st0" d="M43.8,41.9H26.2c-0.8,0-1.5-0.7-1.5-1.5s0.7-1.5,1.5-1.5h17.7c0.8,0,1.5,0.7,1.5,1.5S44.7,41.9,43.8,41.9z"/>
	</g>
</g>
</svg>