<?xml version="1.0" encoding="utf-8"?>
<!-- Generator: Adobe Illustrator 21.0.0, SVG Export Plug-In . SVG Version: 6.00 Build 0)  -->
<svg version="1.1" id="Capa_1" xmlns="http://www.w3.org/2000/svg" xmlns:xlink="http://www.w3.org/1999/xlink" x="0px" y="0px"
	 width="512px" height="512px" viewBox="0 0 512 512" style="enable-background:new 0 0 512 512;" xml:space="preserve">
<style type="text/css">
	.st0{fill:#15A74F;}
</style>
<path class="st0" d="M85,327c0,0,0.5,44,7,47s364,2,373,0s11.5-28,11.5-36s-4-17-6-17S85,327,85,327z"/>
<rect x="343" y="6.7" class="st0" width="151.7" height="34.3"/>
<g transform="translate(0 -1)">
	<g>
		<g>
			<path d="M503.5,35.2V18.1c0-9.4-7.6-17.1-17.1-17.1H349.9c-9.4,0-17.1,7.6-17.1,17.1v17.1c0,9.4,7.6,17.1,17.1,17.1h24.3
				l-16.3,118.1l0,0.1l-15.5,112.2h-60.8v-93.9c0-9.4-7.6-17.1-17.1-17.1h-30.9L76.4,31C74.5,15.1,61.7,2.7,45.8,1.2
				C29.8-0.4,15,9.5,10.2,24.7s1.6,31.8,15.5,39.8v439.9c0,4.7,3.8,8.5,8.5,8.5s8.5-3.8,8.5-8.5V79.6l52.5,70.8
				c0.1,0.3,0.2,0.6,0.4,0.8c0.2,0.2,0.5,0.3,0.7,0.5l14.8,19.9H111c-9.4,0-17.1,7.6-17.1,17.1v93.9H76.8c-9.4,0-17.1,7.6-17.1,17.1
				v17.1c0,9.4,7.6,17.1,17.1,17.1v25.6c-0.3,13.8,10.5,25.2,24.2,25.6h9.9v102.4c0,14.1,11.5,25.6,25.6,25.6h17.1
				c14.1,0,25.6-11.5,25.6-25.6V385h68.3v102.4c0,14.1,11.5,25.6,25.6,25.6h17.1c14.1,0,25.6-11.5,25.6-25.6V385H384v102.4
				c0,14.1,11.5,25.6,25.6,25.6h17.1c14.1,0,25.6-11.5,25.6-25.6V385h9.9c13.7-0.4,24.6-11.8,24.2-25.6v-25.6
				c9.4,0,17.1-7.6,17.1-17.1v-17.1c0-6.4-3.6-12.3-9.4-15.1l-15.7-114.1l0-0.1L462.1,52.2h24.3C495.8,52.2,503.5,44.6,503.5,35.2z
				 M25.6,35.2c0-9.4,7.6-17.1,17.1-17.1c9.4,0,17.1,7.6,17.1,17.1s-7.6,17.1-17.1,17.1S25.6,44.6,25.6,35.2z M54.6,67
				c7.9-3,14.4-8.8,18.3-16.3l30.3,27.1H62.6L54.6,67z M99,126.9l-23.8-32h32.9L99,126.9z M373,185.8l28.8,17.6l-34.1,20.9
				L373,185.8z M396.6,180.2h43l-21.5,13.2L396.6,180.2z M447.6,231.4h-58.9l29.4-18L447.6,231.4z M392.7,163.2l25.5-18.5l25.5,18.5
				H392.7z M432.7,134.2l21.3-15.5l4.7,34.3L432.7,134.2z M434.2,112l-16.1,11.7L402.1,112H434.2z M426.7,94.9V52.2h18.2l5.9,42.7
				H426.7z M409.6,94.9h-24.1l5.9-42.7h18.2V94.9z M403.6,134.2l-26.1,18.9l4.7-34.4L403.6,134.2z M364.4,248.5h45.2v34.1h-49.9
				L364.4,248.5z M188.8,154.4l19.3,17.3h-75.8l-12.7-17.1h68.1C188.1,154.6,188.4,154.5,188.8,154.4z M125.2,97.5l44.8,40h-56.2
				L125.2,97.5z M111,188.8h153.6v93.9H111C111,282.6,111,188.8,111,188.8z M162.2,487.4c0,4.7-3.8,8.5-8.5,8.5h-17.1
				c-4.7,0-8.5-3.8-8.5-8.5V385h34.1L162.2,487.4L162.2,487.4z M298.7,487.4c0,4.7-3.8,8.5-8.5,8.5h-17.1c-4.7,0-8.5-3.8-8.5-8.5
				V385h34.1L298.7,487.4L298.7,487.4z M435.2,487.4c0,4.7-3.8,8.5-8.5,8.5h-17.1c-4.7,0-8.5-3.8-8.5-8.5V385h34.1L435.2,487.4
				L435.2,487.4z M462.2,368H101.1c-4.3-0.4-7.5-4.2-7.2-8.5v-25.6h375.5v25.6C469.7,363.8,466.5,367.6,462.2,368z M486.4,299.7
				l0,17.1h-8.5H76.8v-17.1H486.4z M476.6,282.6h-49.9v-34.1h45.2L476.6,282.6z M463.3,185.8l5.3,38.5l-34.1-20.9L463.3,185.8z
				 M385.3,35.2l-0.1,0c-0.2,0-0.4,0-0.6,0h-34.7V18.1h136.5l0,17.1L385.3,35.2L385.3,35.2z"/>
			<path d="M230.4,205.8h-85.3c-9.4,0-17.1,7.6-17.1,17.1v25.6c0,9.4,7.6,17.1,17.1,17.1h85.3c9.4,0,17.1-7.6,17.1-17.1v-25.6
				C247.5,213.5,239.8,205.8,230.4,205.8z M162.2,248.5h-17.1v-25.6h17.1V248.5z M196.3,248.5h-17.1v-25.6h17.1V248.5z M213.4,248.5
				v-25.6h17.1l0,25.6H213.4z"/>
		</g>
	</g>
</g>
</svg>
