<?xml version="1.0" encoding="utf-8"?>
<!-- Generator: Adobe Illustrator 21.0.0, SVG Export Plug-In . SVG Version: 6.00 Build 0)  -->
<svg version="1.1" id="Layer_1" xmlns="http://www.w3.org/2000/svg" xmlns:xlink="http://www.w3.org/1999/xlink" x="0px" y="0px"
	 viewBox="0 0 70 70" style="enable-background:new 0 0 70 70;" xml:space="preserve">
<style type="text/css">
	.st0{fill:#069c41;}
</style>
<g>
	<g>
		<path class="st0" d="M43.7,61.8c-0.8,0-1.5-0.3-2.1-0.9L29.7,49c-0.6-0.6-0.6-1.5,0-2.1c0.6-0.6,1.5-0.6,2.1,0l11.9,12l2-2
			l-11.8-12c-0.6-0.6-0.6-1.5,0-2.1c0.6-0.6,1.5-0.6,2.1,0l11.9,12c0.6,0.6,0.9,1.3,0.9,2.1c0,0.8-0.3,1.5-0.9,2.1l-2,2
			C45.3,61.5,44.5,61.8,43.7,61.8C43.7,61.8,43.7,61.8,43.7,61.8z"/>
	</g>
	<g>
		<path class="st0" d="M48,57.6c-0.8,0-1.5-0.3-2.1-0.9L34,44.7c-0.6-0.6-0.6-1.5,0-2.1c0.6-0.6,1.5-0.6,2.1,0l11.9,12l2-2l-11.8-12
			c-0.6-0.6-0.6-1.5,0-2.1c0.6-0.6,1.5-0.6,2.1,0l11.9,12c1.2,1.2,1.1,3.1-0.1,4.2l-2,2C49.5,57.3,48.7,57.6,48,57.6z"/>
	</g>
	<g>
		<path class="st0" d="M39.4,66.1c-0.8,0-1.5-0.3-2.1-0.9L1.9,29.8c-0.6-0.6-0.6-1.5,0-2.1c0.6-0.6,1.5-0.6,2.1,0l35.3,35.4l2-2
			l-11.8-12c-0.6-0.6-0.6-1.5,0-2.1c0.6-0.6,1.5-0.6,2.1,0l11.9,12c0.6,0.6,0.9,1.3,0.9,2.1c0,0.8-0.3,1.5-0.9,2.1l-2,2
			C41,65.8,40.2,66.1,39.4,66.1C39.4,66.1,39.4,66.1,39.4,66.1z"/>
	</g>
	<g>
		<path class="st0" d="M15.6,54.2C15.6,54.2,15.6,54.2,15.6,54.2c-0.8,0-1.6-0.3-2.2-0.9l-1.9-1.9c-1.2-1.2-1.2-3.2,0-4.5l3.5-3.5
			c1.2-1.2,3.2-1.2,4.5,0l1.9,1.9c0.6,0.6,0.9,1.4,0.9,2.2c0,0.8-0.3,1.6-0.9,2.2l-3.5,3.5C17.3,53.9,16.5,54.2,15.6,54.2z
			 M17.2,45.5c0,0-0.1,0-0.1,0L13.6,49c-0.1,0.1-0.1,0.2,0,0.2l1.9,1.9c0,0,0,0,0,0c0,0,0.1,0,0.1,0c0,0,0,0,0,0c0,0,0.1,0,0.1,0
			l3.5-3.5c0.1-0.1,0.1-0.2,0-0.2l-1.9-1.9C17.3,45.5,17.3,45.5,17.2,45.5z"/>
	</g>
	<g>
		<path class="st0" d="M20,58.6c-0.8,0-1.6-0.3-2.2-0.9l0,0l-1.9-1.9c-1.2-1.2-1.2-3.2,0-4.5l3.5-3.5c1.2-1.2,3.2-1.2,4.5,0l1.9,1.9
			c0.6,0.6,0.9,1.4,0.9,2.2s-0.3,1.6-0.9,2.2l-3.5,3.5C21.6,58.3,20.8,58.6,20,58.6z M19.9,55.6c0.1,0.1,0.2,0.1,0.2,0l3.5-3.5
			c0.1-0.1,0.1-0.2,0-0.2l-1.9-1.9c-0.1-0.1-0.2-0.1-0.2,0L18,53.4c-0.1,0.1-0.1,0.2,0,0.2L19.9,55.6z"/>
	</g>
	<g>
		<path class="st0" d="M24.4,63c-0.8,0-1.6-0.3-2.2-0.9l0,0l-1.9-1.9c-1.2-1.2-1.2-3.2,0-4.5l3.5-3.5c1.2-1.2,3.2-1.2,4.5,0l1.9,1.9
			c1.2,1.2,1.2,3.2,0,4.5l-3.5,3.5C26,62.7,25.2,63,24.4,63z M24.3,59.9c0.1,0.1,0.2,0.1,0.2,0l3.5-3.5c0.1-0.1,0.1-0.2,0-0.2
			l-1.9-1.9c-0.1-0.1-0.2-0.1-0.2,0l-3.5,3.5c-0.1,0.1-0.1,0.2,0,0.2L24.3,59.9z"/>
	</g>
	<g>
		<path class="st0" d="M11.2,49.8c-0.8,0-1.6-0.3-2.2-0.9l0,0L7.1,47c-1.2-1.2-1.2-3.2,0-4.5l3.5-3.5c1.2-1.2,3.2-1.2,4.5,0l1.9,1.9
			c1.2,1.2,1.2,3.2,0,4.5l-3.5,3.5C12.9,49.5,12,49.8,11.2,49.8z M11.1,46.8c0.1,0.1,0.2,0.1,0.2,0l3.5-3.5c0.1-0.1,0.1-0.2,0-0.2
			l-1.9-1.9c-0.1-0.1-0.2-0.1-0.2,0l-3.5,3.5c-0.1,0.1-0.1,0.2,0,0.2L11.1,46.8z"/>
	</g>
	<g>
		<path class="st0" d="M52.3,53.4c-0.8,0-1.5-0.3-2.1-0.9l-11.9-12c-0.6-0.6-0.6-1.5,0-2.1c0.6-0.6,1.5-0.6,2.1,0l11.9,12l2-2
			l-20-22.1L27.1,25l-3,4.5c-2.4,3.3-6.9,4-10.2,1.6c-1.6-1.1-2.6-2.8-2.9-4.7c-0.3-1.9,0.2-3.8,1.3-5.4l4.7-6.4
			c2.5-3.4,8-3.4,9.6-3.3c4.2,0.2,16,2.1,16.5,2.2c0.8,0.1,1.4,0.9,1.2,1.7c-0.1,0.8-0.9,1.4-1.7,1.2c-0.1,0-12.2-1.9-16.2-2.2
			c-2.5-0.1-5.8,0.3-7.1,2.1l-4.7,6.4c-0.7,0.9-0.9,2-0.8,3.2s0.8,2.1,1.7,2.8c0.9,0.7,2,0.9,3.2,0.8c1.1-0.2,2.1-0.8,2.8-1.7
			l3.5-5.2c0.3-0.5,0.9-0.7,1.5-0.6l8.7,1.5c0.3,0.1,0.6,0.2,0.9,0.5l20.3,22.5c0.5,0.5,0.8,1.3,0.8,2.1c0,0.8-0.3,1.5-0.9,2.1l-2,2
			C53.8,53.1,53.1,53.4,52.3,53.4C52.3,53.4,52.3,53.4,52.3,53.4z"/>
	</g>
	<g>
		<path class="st0" d="M51.5,43.5c-0.4,0-0.8-0.1-1.1-0.4c-0.6-0.6-0.6-1.5,0-2.1l9.8-9.7c0.6-0.6,1.5-0.6,2.1,0s0.6,1.5,0,2.1
			L52.6,43C52.3,43.3,51.9,43.5,51.5,43.5z"/>
	</g>
	<g>
		<path class="st0" d="M61.6,33.7c-1,0-2-0.4-2.8-1.1L44,17.6c-1.5-1.5-1.5-4,0-5.5l3.6-3.6C49,7,51.6,7,53.1,8.5L68,23.4
			c0.7,0.7,1.1,1.7,1.1,2.8s-0.4,2-1.1,2.8l-3.6,3.6C63.6,33.3,62.6,33.7,61.6,33.7z M50.3,10.3c-0.2,0-0.5,0.1-0.6,0.3l-3.6,3.6
			c-0.4,0.4-0.4,0.9,0,1.3L61,30.4c0.4,0.4,0.9,0.4,1.3,0l3.6-3.6c0.2-0.2,0.3-0.4,0.3-0.6s-0.1-0.5-0.3-0.6L50.9,10.6
			C50.8,10.4,50.5,10.3,50.3,10.3z"/>
	</g>
	<g>
		<circle class="st0" cx="61.8" cy="26.3" r="1.3"/>
	</g>
</g>
</svg>
