<?xml version="1.0" encoding="utf-8"?>
<!-- Generator: Adobe Illustrator 21.0.0, SVG Export Plug-In . SVG Version: 6.00 Build 0)  -->
<svg version="1.1" id="Layer_1" xmlns="http://www.w3.org/2000/svg" xmlns:xlink="http://www.w3.org/1999/xlink" x="0px" y="0px"
	 viewBox="0 0 70 70" style="enable-background:new 0 0 70 70;" xml:space="preserve">
<style type="text/css">
	.st0{fill:#069c41;}
</style>
<g>
	<g>
		<path class="st0" d="M34.3,57.2c-7.7,0-13.4-5.3-13.7-5.6c-0.6-0.6-0.6-1.5-0.1-2.1c0.6-0.6,1.5-0.6,2.1-0.1
			c0.1,0.1,7.2,6.7,15.6,4.2c11.6-3.4,16.1-14.5,17.5-19.1c0.3-1.1,4.7-20.5,5.1-24.3c0.1-0.8,0.9-1.4,1.7-1.3
			c0.8,0.1,1.4,0.9,1.3,1.7c-0.5,4-5,23.8-5.2,24.6c0,0,0,0.1,0,0.1c-1.5,5.1-6.5,17.3-19.6,21.2C37.4,57,35.8,57.2,34.3,57.2z"/>
	</g>
	<g>
		<path class="st0" d="M21.2,51.8c-0.4,0-0.8-0.2-1.1-0.5c-0.3-0.3-7-8.1-4-18.1c3.9-13,16.2-17.9,21.3-19.4c0,0,0.1,0,0.1,0
			c0.8-0.2,20.6-4.6,24.7-5c0.8-0.1,1.6,0.5,1.7,1.3c0.1,0.8-0.5,1.6-1.3,1.7c-3.8,0.5-23.2,4.7-24.3,5C33.5,18,22.4,22.4,18.9,34
			c-2.5,8.4,3.3,15.2,3.4,15.2c0.5,0.6,0.5,1.6-0.1,2.1C21.9,51.6,21.5,51.8,21.2,51.8z"/>
	</g>
	<g>
		<path class="st0" d="M11.2,62.8c-0.4,0-0.8-0.1-1.1-0.4c-0.6-0.6-0.6-1.5,0-2.1L49,21.2c0.6-0.6,1.5-0.6,2.1,0
			c0.6,0.6,0.6,1.5,0,2.1L12.3,62.4C12,62.7,11.6,62.8,11.2,62.8z"/>
	</g>
	<g>
		<path class="st0" d="M30.7,41.9c-0.7,0-1.3-0.4-1.5-1.1l-3.1-11.9c-0.2-0.8,0.3-1.6,1.1-1.8c0.8-0.2,1.6,0.3,1.8,1.1L32.1,40
			c0.2,0.8-0.3,1.6-1.1,1.8C30.9,41.9,30.8,41.9,30.7,41.9z"/>
	</g>
	<g>
		<path class="st0" d="M39.6,32.6c-0.7,0-1.4-0.5-1.5-1.3l-0.9-6.3c-0.1-0.8,0.5-1.6,1.3-1.7c0.8-0.1,1.6,0.5,1.7,1.3l0.9,6.3
			c0.1,0.8-0.5,1.6-1.3,1.7C39.8,32.6,39.7,32.6,39.6,32.6z"/>
	</g>
	<g>
		<path class="st0" d="M43.8,46.2c-0.1,0-0.2,0-0.3,0l-12-2.8c-0.8-0.2-1.3-1-1.1-1.8c0.2-0.8,1-1.3,1.8-1.1l12,2.8
			c0.8,0.2,1.3,1,1.1,1.8C45.1,45.7,44.5,46.2,43.8,46.2z"/>
	</g>
	<g>
		<path class="st0" d="M47.2,34.9c-0.1,0-0.1,0-0.2,0l-6.3-0.7c-0.8-0.1-1.4-0.8-1.3-1.7c0.1-0.8,0.8-1.4,1.7-1.3l6.3,0.7
			c0.8,0.1,1.4,0.8,1.3,1.7C48.6,34.4,47.9,34.9,47.2,34.9z"/>
	</g>
</g>
</svg>