<?xml version="1.0" encoding="utf-8"?>
<!-- Generator: Adobe Illustrator 21.0.0, SVG Export Plug-In . SVG Version: 6.00 Build 0)  -->
<svg version="1.1" id="Capa_1" xmlns="http://www.w3.org/2000/svg" xmlns:xlink="http://www.w3.org/1999/xlink" x="0px" y="0px"
	 width="60px" height="60px" viewBox="0 0 60 60" style="enable-background:new 0 0 60 60;" xml:space="preserve">
<style type="text/css">
	.st0{fill:#15A74F;}
</style>
<path class="st0" d="M14.2,15.1c0,0-1.2,19.5,1.7,23.9s6.9,9.7,8.8,11s5.3,2.6,5.3,2.6s5.3-2.3,8.9-6.3c3.6-4,6.8-11.5,7-14.6
	c0.2-3.1,0.2-15.4,0-16.2C45.8,14.8,30.1,9.1,30,9S14.2,15.1,14.2,15.1z"/>
<g>
	<path d="M52,8C37.4,8,30.9,0.4,30.8,0.3c-0.4-0.5-1.2-0.5-1.5,0C29.2,0.4,22.7,8,8,8C7.4,8,7,8.4,7,9v19.1
		c0,10.4,4.7,20.3,12.5,26.5c3.2,2.5,6.6,4.3,10.2,5.4c0.1,0,0.2,0,0.3,0s0.2,0,0.3,0c3.6-1.1,7-2.9,10.2-5.4
		C48.3,48.4,53,38.5,53,28.1V9C53,8.4,52.5,8,52,8z M51,28.1c0,9.8-4.4,19.2-11.8,24.9c-2.9,2.3-6,3.9-9.2,4.9
		c-3.2-1-6.3-2.7-9.2-4.9C13.4,47.2,9,37.9,9,28.1V10c12.2-0.3,18.9-5.5,21-7.5c2.1,2,8.8,7.3,21,7.5V28.1z"/>
	<path d="M29.4,8c-3,2-8.2,4.7-15.6,5.6c-0.5,0.1-0.9,0.5-0.9,1v13.5c0,8.6,3.8,16.8,10.3,21.8c2,1.6,4.2,2.8,6.4,3.7
		c0.1,0,0.2,0.1,0.4,0.1s0.2,0,0.4-0.1c2.2-0.9,4.4-2.1,6.4-3.7c6.4-5,10.3-13.2,10.3-21.8V14.6c0-0.5-0.4-0.9-0.9-1
		C38.7,12.7,33.6,10,30.6,8C30.2,7.8,29.8,7.8,29.4,8z M45,15.5v12.6c0,8-3.5,15.6-9.5,20.2c-1.8,1.4-3.6,2.5-5.5,3.3
		c-1.9-0.8-3.8-1.9-5.5-3.3C18.5,43.6,15,36.1,15,28.1V15.5c6.9-1,11.9-3.4,15-5.5C33.1,12,38.1,14.5,45,15.5z"/>
	<path d="M20.7,29.3c-0.4-0.4-1-0.4-1.4,0s-0.4,1,0,1.4l8,8c0.2,0.2,0.4,0.3,0.7,0.3c0,0,0,0,0,0c0.3,0,0.5-0.1,0.7-0.3l14-16
		c0.4-0.4,0.3-1-0.1-1.4c-0.4-0.4-1-0.3-1.4,0.1L27.9,36.5L20.7,29.3z"/>
</g>
</svg>
