<?xml version="1.0" encoding="utf-8"?>
<!-- Generator: Adobe Illustrator 21.0.0, SVG Export Plug-In . SVG Version: 6.00 Build 0)  -->
<svg version="1.1" id="Layer_1" xmlns="http://www.w3.org/2000/svg" xmlns:xlink="http://www.w3.org/1999/xlink" x="0px" y="0px"
	 viewBox="0 0 70 70" style="enable-background:new 0 0 70 70;" xml:space="preserve">
<style type="text/css">
	.st0{fill:#069c41;}
</style>
<g>
	<path class="st0" d="M38.7,60.5c-0.4,0-0.8-0.2-1.1-0.4L9.1,31.4c-0.3-0.3-0.5-0.8-0.4-1.3s0.4-0.9,0.9-1.1
		c5.4-2.5,11.6-2.7,17.2-0.7l11.2-11.1l-0.2-0.2c-1-1-1.6-2.4-1.6-3.8c0-1.5,0.6-2.8,1.6-3.8c1-1,2.4-1.6,3.8-1.6c0,0,0,0,0,0
		c1.5,0,2.8,0.6,3.8,1.6l14.5,14.5c1,1,1.6,2.4,1.6,3.8c0,1.5-0.6,2.8-1.6,3.8c-2.1,2.1-5.6,2.1-7.7,0L52,31.2L40.8,42.4
		c2,5.6,1.7,11.8-0.8,17.2c-0.2,0.4-0.6,0.8-1.1,0.9C38.8,60.5,38.7,60.5,38.7,60.5z M12.8,30.9l25.3,25.3c1.5-4.5,1.3-9.4-0.4-13.7
		c-0.2-0.6-0.1-1.2,0.3-1.6L50.9,28c0.3-0.3,0.7-0.4,1.1-0.4c0,0,0,0,0,0c0.4,0,0.8,0.2,1.1,0.4l1.3,1.3c0.9,1,2.5,1,3.4,0
		c0.9-0.9,1-2.5,0-3.4L43.2,11.4c-0.5-0.5-1.1-0.7-1.7-0.7c0,0,0,0,0,0c-0.7,0-1.3,0.3-1.7,0.7c-0.5,0.5-0.7,1.1-0.7,1.7
		c0,0.7,0.3,1.3,0.7,1.7l1.3,1.3c0.3,0.3,0.4,0.7,0.4,1.1c0,0.4-0.2,0.8-0.4,1.1L28.2,31.1c-0.4,0.4-1.1,0.6-1.6,0.3
		C22.2,29.6,17.3,29.5,12.8,30.9z"/>
</g>
<g>
	<path class="st0" d="M12.4,58.1c-0.4,0-0.8-0.1-1.1-0.4c-0.6-0.6-0.6-1.5,0-2.1l12-11.9c0.6-0.6,1.5-0.6,2.1,0
		c0.6,0.6,0.6,1.5,0,2.1l-12,11.9C13.2,58,12.8,58.1,12.4,58.1z"/>
</g>
</svg>