<?xml version="1.0" encoding="utf-8"?>
<!-- Generator: Adobe Illustrator 21.0.0, SVG Export Plug-In . SVG Version: 6.00 Build 0)  -->
<svg version="1.1" id="Layer_1" xmlns="http://www.w3.org/2000/svg" xmlns:xlink="http://www.w3.org/1999/xlink" x="0px" y="0px"
	 viewBox="0 0 70 70" style="enable-background:new 0 0 70 70;" xml:space="preserve">
<style type="text/css">
	.st0{fill:#069c41;}
</style>
<g>
	<g>
		<path class="st0" d="M61.3,53.4H10.6c-4.1,0-7.5-3.4-7.5-7.5v-33c0-4.1,3.4-7.5,7.5-7.5h50.8c4.1,0,7.5,3.4,7.5,7.5v33
			C68.8,50,65.5,53.4,61.3,53.4z M10.6,8.4c-2.5,0-4.5,2-4.5,4.5v33c0,2.5,2,4.5,4.5,4.5h50.8c2.5,0,4.5-2,4.5-4.5v-33
			c0-2.5-2-4.5-4.5-4.5H10.6z"/>
	</g>
	<g>
		<path class="st0" d="M67.3,42.6H4.6c-0.8,0-1.5-0.7-1.5-1.5s0.7-1.5,1.5-1.5h62.8c0.8,0,1.5,0.7,1.5,1.5S68.1,42.6,67.3,42.6z"/>
	</g>
	<g>
		<path class="st0" d="M35.9,64.6c-0.8,0-1.5-0.7-1.5-1.5V51.9c0-0.8,0.7-1.5,1.5-1.5s1.5,0.7,1.5,1.5v11.3
			C37.4,64,36.8,64.6,35.9,64.6z"/>
	</g>
	<g>
		<path class="st0" d="M50.3,64.6H21.6c-0.8,0-1.5-0.7-1.5-1.5s0.7-1.5,1.5-1.5h28.7c0.8,0,1.5,0.7,1.5,1.5S51.1,64.6,50.3,64.6z"/>
	</g>
</g>
<g>
	<path class="st0" d="M33.1,25.3c0.1,4.2,2.7,5.9,5.8,5.9c2.2,0,3.6-0.4,4.7-0.9l0.5,2.2c-1.1,0.5-3,1.1-5.7,1.1
		c-5.2,0-8.4-3.5-8.4-8.6c0-5.1,3-9.2,8-9.2c5.6,0,7,4.9,7,8c0,0.6-0.1,1.1-0.1,1.4H33.1z M42.2,23.1c0-2-0.8-5-4.3-5
		c-3.1,0-4.5,2.9-4.8,5H42.2z"/>
</g>
</svg>
