<?xml version="1.0" encoding="utf-8"?>
<!-- Generator: Adobe Illustrator 21.0.0, SVG Export Plug-In . SVG Version: 6.00 Build 0)  -->
<svg version="1.1" id="Capa_1" xmlns="http://www.w3.org/2000/svg" xmlns:xlink="http://www.w3.org/1999/xlink" x="0px" y="0px"
	 width="60px" height="60px" viewBox="0 0 60 60" style="enable-background:new 0 0 60 60;" xml:space="preserve">
<style type="text/css">
	.st0{fill:#15A74F;}
</style>
<path class="st0" d="M1.3,34.5c0.1,0.4-0.2,6,0.9,7.5s4.8,3.9,6.2,4s3.4-0.3,4.9-1.3s3-2.1,3.4-4.4c0.4-2.3,1.2-4.3,0-5.8
	s-3.7-3.4-5.1-4s-4.6-0.5-5.7,0S1.3,34.5,1.3,34.5z"/>
<path class="st0" d="M43.2,34.5c0.1,0.4-0.2,6,0.9,7.5c1.1,1.5,4.8,3.9,6.2,4c1.4,0.1,3.4-0.3,4.9-1.3s3-2.1,3.4-4.4
	c0.4-2.3,1.2-4.3,0-5.8c-1.2-1.4-3.7-3.4-5.1-4c-1.4-0.6-4.6-0.5-5.7,0C46.8,31,43.2,34.5,43.2,34.5z"/>
<g>
	<g>
		<path d="M20,12h9V5h-9V12z M22,7h5v3h-5V7z"/>
		<path d="M31,12h9V5h-9V12z M33,7h5v3h-5V7z"/>
		<path d="M46,16h10V9H46V16z M48,11h6v3h-6V11z"/>
		<path d="M46,25h10v-7H46V25z M48,20h6v3h-6V20z"/>
		<path d="M14,9H4v7h10V9z M12,14H6v-3h6V14z"/>
		<path d="M14,18H4v7h10V18z M12,23H6v-3h6V23z"/>
		<path d="M20,21h9v-7h-9V21z M22,16h5v3h-5V16z"/>
		<path d="M31,21h9v-7h-9V21z M33,16h5v3h-5V16z"/>
		<path d="M20,30h9v-7h-9V30z M22,25h5v3h-5V25z"/>
		<path d="M31,30h9v-7h-9V30z M33,25h5v3h-5V25z"/>
		<path d="M44,3V0H16v3H0v35c0,4.6,3.5,8.4,8,8.9V59c0,0.6,0.4,1,1,1s1-0.4,1-1V46.9c2.4-0.3,4.5-1.5,6-3.3V48h-4c-0.6,0-1,0.4-1,1
			s0.4,1,1,1h4h1h5h1.8L22,58.8c-0.1,0.3,0,0.6,0.2,0.8c0.2,0.2,0.5,0.4,0.8,0.4h14c0.3,0,0.6-0.1,0.8-0.4c0.2-0.2,0.3-0.5,0.2-0.8
			L36.2,50H38h5h1h4c0.6,0,1-0.4,1-1s-0.4-1-1-1h-4v-4.4c1.5,1.8,3.6,3,6,3.3V59c0,0.6,0.4,1,1,1s1-0.4,1-1V46.9
			c4.5-0.5,8-4.3,8-8.9V3H44z M2,32.3V5h14v27.3c0,0,0,0,0,0c-0.2-0.2-0.4-0.5-0.6-0.7c0,0-0.1-0.1-0.1-0.1
			c-0.2-0.2-0.4-0.4-0.6-0.5c-0.1-0.1-0.2-0.1-0.3-0.2c-0.2-0.1-0.3-0.2-0.5-0.4c-0.1-0.1-0.2-0.1-0.3-0.2c-0.2-0.1-0.3-0.2-0.5-0.3
			c-0.1-0.1-0.2-0.1-0.3-0.2c-0.2-0.1-0.3-0.2-0.5-0.2c-0.1,0-0.2-0.1-0.4-0.1c-0.2-0.1-0.4-0.1-0.6-0.2c-0.1,0-0.2-0.1-0.4-0.1
			c-0.2,0-0.4-0.1-0.6-0.1c-0.1,0-0.2,0-0.3,0C9.7,29,9.3,29,9,29s-0.7,0-1,0.1c-0.1,0-0.2,0-0.3,0c-0.2,0-0.4,0.1-0.6,0.1
			c-0.1,0-0.2,0.1-0.4,0.1c-0.2,0-0.4,0.1-0.6,0.2c-0.1,0-0.2,0.1-0.4,0.1c-0.2,0.1-0.3,0.1-0.5,0.2C5.1,29.9,5,29.9,4.9,30
			c-0.2,0.1-0.3,0.2-0.5,0.3c-0.1,0.1-0.2,0.1-0.3,0.2c-0.2,0.1-0.3,0.2-0.5,0.4c-0.1,0.1-0.2,0.1-0.3,0.2c-0.2,0.2-0.4,0.3-0.6,0.5
			c0,0-0.1,0.1-0.1,0.1C2.4,31.8,2.2,32.1,2,32.3C2,32.3,2,32.3,2,32.3z M10,44.9v-2.5l2.7-2.7c0.4-0.4,0.4-1,0-1.4s-1-0.4-1.4,0
			L9,40.6l-2.3-2.3c-0.4-0.4-1-0.4-1.4,0s-0.4,1,0,1.4L8,42.4v2.5c-3.4-0.5-6-3.4-6-6.9c0-3.9,3.1-7,7-7s7,3.1,7,7
			C16,41.5,13.4,44.4,10,44.9z M25,48h-2V36h6v12H25z M35.8,58H24.2l1.6-8h8.4L35.8,58z M35,48h-4V36h6v12H35z M42,48h-3V35
			c0-0.6-0.4-1-1-1H22c-0.6,0-1,0.4-1,1v13h-3V38V3V2h24v1v35V48z M52,44.9v-2.5l2.7-2.7c0.4-0.4,0.4-1,0-1.4s-1-0.4-1.4,0L51,40.6
			l-2.3-2.3c-0.4-0.4-1-0.4-1.4,0s-0.4,1,0,1.4l2.7,2.7v2.5c-3.4-0.5-6-3.4-6-6.9c0-3.9,3.1-7,7-7s7,3.1,7,7
			C58,41.5,55.4,44.4,52,44.9z M57.3,31.6c0,0-0.1-0.1-0.1-0.1c-0.2-0.2-0.4-0.4-0.6-0.5c-0.1-0.1-0.2-0.1-0.3-0.2
			c-0.2-0.1-0.3-0.2-0.5-0.4c-0.1-0.1-0.2-0.1-0.3-0.2c-0.2-0.1-0.3-0.2-0.5-0.3c-0.1-0.1-0.2-0.1-0.3-0.2c-0.2-0.1-0.3-0.2-0.5-0.2
			c-0.1,0-0.2-0.1-0.4-0.1c-0.2-0.1-0.4-0.1-0.6-0.2c-0.1,0-0.2-0.1-0.4-0.1c-0.2,0-0.4-0.1-0.6-0.1c-0.1,0-0.2,0-0.3,0
			c-0.3,0-0.7-0.1-1-0.1s-0.7,0-1,0.1c-0.1,0-0.2,0-0.3,0c-0.2,0-0.4,0.1-0.6,0.1c-0.1,0-0.2,0.1-0.4,0.1c-0.2,0-0.4,0.1-0.6,0.2
			c-0.1,0-0.2,0.1-0.4,0.1c-0.2,0.1-0.3,0.1-0.5,0.2c-0.1,0.1-0.2,0.1-0.3,0.2c-0.2,0.1-0.3,0.2-0.5,0.3c-0.1,0.1-0.2,0.1-0.3,0.2
			c-0.2,0.1-0.3,0.2-0.5,0.4c-0.1,0.1-0.2,0.1-0.3,0.2c-0.2,0.2-0.4,0.3-0.6,0.5c0,0-0.1,0.1-0.1,0.1c-0.2,0.2-0.4,0.4-0.6,0.7
			c0,0,0,0,0,0V5h14v27.3c0,0,0,0,0,0C57.8,32.1,57.6,31.8,57.3,31.6z"/>
		<path d="M6,48H1c-0.6,0-1,0.4-1,1s0.4,1,1,1h5c0.6,0,1-0.4,1-1S6.6,48,6,48z"/>
		<path d="M59,48h-5c-0.6,0-1,0.4-1,1s0.4,1,1,1h5c0.6,0,1-0.4,1-1S59.6,48,59,48z"/>
	</g>
</g>
</svg>
