<?xml version="1.0" encoding="utf-8"?>
<!-- Generator: Adobe Illustrator 21.0.0, SVG Export Plug-In . SVG Version: 6.00 Build 0)  -->
<svg version="1.1" id="Layer_1" xmlns="http://www.w3.org/2000/svg" xmlns:xlink="http://www.w3.org/1999/xlink" x="0px" y="0px"
	 viewBox="0 0 70 70" style="enable-background:new 0 0 70 70;" xml:space="preserve">
<style type="text/css">
	.st0{fill:#069c41;}
</style>
<g>
	<g>
		<path class="st0" d="M27.4,65.1h-14c-3.6,0-6.5-2.9-6.5-6.5V12.9c0-3.6,2.9-6.5,6.5-6.5h14c3.6,0,6.5,2.9,6.5,6.5v45.7
			C33.9,62.2,31,65.1,27.4,65.1z M13.4,9.4c-1.9,0-3.5,1.6-3.5,3.5v45.7c0,1.9,1.6,3.5,3.5,3.5h14c1.9,0,3.5-1.6,3.5-3.5V12.9
			c0-1.9-1.6-3.5-3.5-3.5H13.4z"/>
	</g>
	<g>
		<path class="st0" d="M25.4,37.3H15.3c-0.8,0-1.5-0.7-1.5-1.5v-21c0-0.8,0.7-1.5,1.5-1.5h10.1c0.8,0,1.5,0.7,1.5,1.5v21
			C26.9,36.6,26.3,37.3,25.4,37.3z M16.8,34.3h7.1v-18h-7.1V34.3z"/>
	</g>
	<g>
		<path class="st0" d="M25.4,22.4H15.3c-0.8,0-1.5-0.7-1.5-1.5s0.7-1.5,1.5-1.5h10.1c0.8,0,1.5,0.7,1.5,1.5S26.3,22.4,25.4,22.4z"/>
	</g>
	<g>
		<path class="st0" d="M25.4,29.6H15.3c-0.8,0-1.5-0.7-1.5-1.5s0.7-1.5,1.5-1.5h10.1c0.8,0,1.5,0.7,1.5,1.5S26.3,29.6,25.4,29.6z"/>
	</g>
	<g>
		<path class="st0" d="M20.4,58.4c-3.9,0-7-3.1-7-7c0-3.9,3.1-7,7-7c3.9,0,7,3.1,7,7C27.4,55.3,24.2,58.4,20.4,58.4z M20.4,47.5
			c-2.2,0-4,1.8-4,4c0,2.2,1.8,4,4,4c2.2,0,4-1.8,4-4C24.4,49.3,22.6,47.5,20.4,47.5z"/>
	</g>
</g>
<g>
	<g>
		<path class="st0" d="M58.1,65.1h-14c-3.6,0-6.5-2.9-6.5-6.5V12.9c0-3.6,2.9-6.5,6.5-6.5h14c3.6,0,6.5,2.9,6.5,6.5v45.7
			C64.6,62.2,61.7,65.1,58.1,65.1z M44.1,9.4c-1.9,0-3.5,1.6-3.5,3.5v45.7c0,1.9,1.6,3.5,3.5,3.5h14c1.9,0,3.5-1.6,3.5-3.5V12.9
			c0-1.9-1.6-3.5-3.5-3.5H44.1z"/>
	</g>
	<g>
		<path class="st0" d="M56.2,37.3H46.1c-0.8,0-1.5-0.7-1.5-1.5v-21c0-0.8,0.7-1.5,1.5-1.5h10.1c0.8,0,1.5,0.7,1.5,1.5v21
			C57.7,36.6,57,37.3,56.2,37.3z M47.6,34.3h7.1v-18h-7.1V34.3z"/>
	</g>
	<g>
		<path class="st0" d="M56.2,22.4H46.1c-0.8,0-1.5-0.7-1.5-1.5s0.7-1.5,1.5-1.5h10.1c0.8,0,1.5,0.7,1.5,1.5S57,22.4,56.2,22.4z"/>
	</g>
	<g>
		<path class="st0" d="M56.2,29.6H46.1c-0.8,0-1.5-0.7-1.5-1.5s0.7-1.5,1.5-1.5h10.1c0.8,0,1.5,0.7,1.5,1.5S57,29.6,56.2,29.6z"/>
	</g>
	<g>
		<path class="st0" d="M51.1,58.4c-3.9,0-7-3.1-7-7c0-3.9,3.1-7,7-7c3.9,0,7,3.1,7,7C58.1,55.3,55,58.4,51.1,58.4z M51.1,47.5
			c-2.2,0-4,1.8-4,4c0,2.2,1.8,4,4,4c2.2,0,4-1.8,4-4C55.1,49.3,53.3,47.5,51.1,47.5z"/>
	</g>
</g>
</svg>
