<?xml version="1.0" encoding="utf-8"?>
<!-- Generator: Adobe Illustrator 21.0.0, SVG Export Plug-In . SVG Version: 6.00 Build 0)  -->
<svg version="1.1" id="Layer_1" xmlns="http://www.w3.org/2000/svg" xmlns:xlink="http://www.w3.org/1999/xlink" x="0px" y="0px"
	 width="512px" height="512px" viewBox="0 0 512 512" style="enable-background:new 0 0 512 512;" xml:space="preserve">
<style type="text/css">
	.st0{fill:#15A74F;}
</style>
<polygon class="st0" points="50.3,404.3 55,449.7 453,449.7 463,427 460.3,404.3 "/>
<polygon class="st0" points="148,143.5 148,270 364.5,270 364.5,139 "/>
<g transform="translate(1 1)">
	<g>
		<g>
			<path d="M374.5,152.6c0-14.5-11.1-25.6-25.6-25.6H161.1c-14.5,0-25.6,11.1-25.6,25.6V255c0,14.5,11.1,25.6,25.6,25.6h187.7
				c14.5,0,25.6-11.1,25.6-25.6L374.5,152.6L374.5,152.6z M357.4,255c0,5.1-3.4,8.5-8.5,8.5h-56.3l28.2-28.2c3.4-3.4,3.4-8.5,0-11.9
				c-3.4-3.4-8.5-3.4-11.9,0l-40.1,40.1h-52.9l28.2-28.2c3.4-3.4,3.4-8.5,0-11.9s-8.5-3.4-11.9,0l-40.1,40.1h-30.7
				c-5.1,0-8.5-3.4-8.5-8.5V152.6c0-5.1,3.4-8.5,8.5-8.5h187.7c5.1,0,8.5,3.4,8.5,8.5L357.4,255L357.4,255z"/>
			<path d="M495.6,144.9H476c-8.5,0-15.4,6.8-15.4,15.4v17.9h-9.4V24.6c0-14.5-11.1-25.6-25.6-25.6H84.3C69.8-1,58.7,10.1,58.7,24.6
				v153.6h-9.4v-17.9c0-8.5-6.8-15.4-15.4-15.4H14.4c-8.5,0-15.4,6.8-15.4,15.4V214c0,8.5,6.8,15.4,15.4,15.4h20.5
				c8.5,0,15.4-6.8,14.5-15.4v-18.8h9.4v93.9h-8.5c-5.1,0-8.5,3.4-8.5,8.5v102.4c0,0.1,0,0.3,0,0.4c0,0.1,0,0.3,0,0.4v33.3
				c0,14.5,11.1,25.6,25.6,25.6h8.5v17.1c0,18.8,15.4,34.1,34.1,34.1h34.1c18.8,0,34.1-15.4,34.1-34.1v-17.1h153.6v17.1
				c0,18.8,15.4,34.1,34.1,34.1h34.1c18.8,0,34.1-15.4,34.1-34.1v-17.1h8.5c14.5,0,25.6-11.1,25.6-25.6v-33.3c0-0.1,0-0.3,0-0.4
				c0-0.1,0-0.3,0-0.4V297.7c0-5.1-3.4-8.5-8.5-8.5h-8.5v-93.9h9.4V214c0,8.5,6.8,15.4,15.4,15.4h19.6c8.5,0,15.4-6.8,15.4-15.4
				v-53.8C511,151.7,504.2,144.9,495.6,144.9z M33.1,212.3H16.1v-51.2h17.1L33.1,212.3L33.1,212.3z M161.1,476.9
				c0,9.4-7.7,17.1-17.1,17.1h-34.1c-9.4,0-17.1-7.7-17.1-17.1v-17.1h68.3V476.9z M417.1,476.9c0,9.4-7.7,17.1-17.1,17.1h-34.1
				c-9.4,0-17.1-7.7-17.1-17.1v-17.1h68.3L417.1,476.9L417.1,476.9z M451.3,434.2c0,5.1-3.4,8.5-8.5,8.5h-8.5H331.8H178.2H75.8h-8.5
				c-5.1,0-8.5-3.4-8.5-8.5v-24.7h392.5V434.2z M451.3,391.5H58.7v-85.3h42.7h8.5v-8.5V116.8c0-8.5,6.8-15.4,15.4-15.4h259.4
				c8.5,0,15.4,6.8,15.4,15.4v180.9v8.5h8.5h42.7L451.3,391.5L451.3,391.5z M417.1,289.1V116.8c0-17.9-14.5-32.4-32.4-32.4h-44.4
				V58.7c0-5.1-3.4-8.5-8.5-8.5s-8.5,3.4-8.5,8.5v25.6h-25.6V58.7c0-5.1-3.4-8.5-8.5-8.5s-8.5,3.4-8.5,8.5v25.6H255V58.7
				c0-5.1-3.4-8.5-8.5-8.5s-8.5,3.4-8.5,8.5v25.6h-25.6V58.7c0-5.1-3.4-8.5-8.5-8.5c-5.1,0-8.5,3.4-8.5,8.5v25.6h-25.6V58.7
				c0-5.1-3.4-8.5-8.5-8.5s-8.5,3.4-8.5,8.5v25.6h-27.3c-17.9,0-32.4,14.5-32.4,32.4v172.4H75.8V24.6c0-5.1,3.4-8.5,8.5-8.5h341.3
				c5.1,0,8.5,3.4,8.5,8.5v264.5H417.1z M493.9,212.3h-17.1v-51.2h17.1V212.3z"/>
			<path d="M289.1,331.8c5.1,0,8.5-3.4,8.5-8.5s-3.4-8.5-8.5-8.5h-68.3c-5.1,0-8.5,3.4-8.5,8.5s3.4,8.5,8.5,8.5H289.1z"/>
			<path d="M314.7,348.9H195.3c-5.1,0-8.5,3.4-8.5,8.5s3.4,8.5,8.5,8.5h119.5c5.1,0,8.5-3.4,8.5-8.5S319.9,348.9,314.7,348.9z"/>
			<path d="M109.9,323.3c-14.5,0-25.6,11.1-25.6,25.6c0,14.5,11.1,25.6,25.6,25.6s25.6-11.1,25.6-25.6S124.4,323.3,109.9,323.3z
				 M109.9,357.4c-5.1,0-8.5-3.4-8.5-8.5s3.4-8.5,8.5-8.5s8.5,3.4,8.5,8.5S115.1,357.4,109.9,357.4z"/>
			<path d="M374.5,348.9c0,14.5,11.1,25.6,25.6,25.6c14.5,0,25.6-11.1,25.6-25.6c0-14.5-11.1-25.6-25.6-25.6
				S374.5,334.4,374.5,348.9z M408.6,348.9c0,5.1-3.4,8.5-8.5,8.5s-8.5-3.4-8.5-8.5s3.4-8.5,8.5-8.5
				C405.2,340.3,408.6,343.7,408.6,348.9z"/>
		</g>
	</g>
</g>
</svg>
