<?xml version="1.0" encoding="utf-8"?>
<!-- Generator: Adobe Illustrator 21.0.0, SVG Export Plug-In . SVG Version: 6.00 Build 0)  -->
<svg version="1.1" id="Layer_1" xmlns="http://www.w3.org/2000/svg" xmlns:xlink="http://www.w3.org/1999/xlink" x="0px" y="0px"
	 width="512.4px" height="512.4px" viewBox="0 0 512.4 512.4" style="enable-background:new 0 0 512.4 512.4;" xml:space="preserve"
	>
<style type="text/css">
	.st0{fill:#15A74F;}
</style>
<polygon class="st0" points="12.3,409 12.3,455 503,455 503,405 "/>
<path class="st0" d="M12.3,239.7c0,0,12.7,22,12.7,36S12.3,319,12.3,319h265.3c0,0,17.3-20,21.3-32s-6-26-12-35.3
	c-6-9.3-28.7-14.7-56.7-15.3C202.3,235.7,12.3,239.7,12.3,239.7z"/>
<g transform="translate(1 1)">
	<g>
		<g>
			<path d="M502.9,396.9H448l19.1-5.1c1.7-0.9,4.3-1.7,5.1-4.3s1.7-4.3,0.9-6.8l-12.7-47c0.1-0.8,0-1.7-0.1-2.5l-8.5-33.3
				c-0.4-0.8-1-1.8-1.7-2.7l-42.7-158.5c0.2-1.2,0.3-2.4,0-3.5l-8.5-33.3c-0.5-1.1-1.4-2.4-2.4-3.5l-12.2-45.1
				c-0.9-4.3-6-6.8-10.2-6l-82.8,22.2c-4.3,0.9-6.8,6-6,10.2l18.4,68.5c-6.8-3.4-14.5-5.3-22.7-5.3H33.6c-3.4,0-6,1.7-7.7,5.1
				c-1.7,2.6-1.7,6,0,8.5l10.2,16.2c7.7,13.7,7.7,29.9,0,43.5l-7.5,11.9H8c-3.4,0-6,1.7-7.7,5.1c-1.7,2.6-1.7,6,0,8.5l10.2,16.2
				c7.7,13.7,7.7,29.9,0,43.5L0.3,315.9c-1.7,2.6-1.7,6,0,8.5s4.3,4.3,7.7,4.3H28l8.1,12.8c7.7,13.7,7.7,29.9,0,43.5l-7.5,11.9H8
				c-5.1,0-8.5,3.4-8.5,8.5v51.2c0,5.1,3.4,8.5,8.5,8.5h494.9c5.1,0,8.5-3.4,8.5-8.5v-51.2C511.4,400.4,508,396.9,502.9,396.9z
				 M292.3,312.9c8.9-9.2,14.3-21.7,14.3-35.4s-5.5-26.2-14.3-35.4c13-2.9,24.1-10.9,31.3-21.6L353,329.9l7.3,28.6
				c0.2,0.4,0.4,0.8,0.7,1.1l10,37.3h-52c8.1-9.1,13.1-21,13.1-34.1C332.2,338.5,315.1,318.1,292.3,312.9z M387.7,129.9L322,147.8
				l-4.3-16.2l65.7-17.9L387.7,129.9z M392.3,146l39.2,148.4l-66,17.7l-33.6-126c-0.6-4.9-1.9-9.7-3.8-14.1l-2.1-7.8L392.3,146z
				 M370.6,328.7l65.4-17l4.3,16.2l-65.4,17.8L370.6,328.7z M387.7,395.2l-9-33.5l65.9-17.7l8.8,33.3L387.7,395.2z M370.6,64.1
				l8.5,32.2l-66.5,17.8l-8.6-32.1L370.6,64.1z M50.6,161.4l-1.7-3.4H281c14.1,0,26.2,8.6,31.4,20.8l2.4,9.1
				c0.2,1.4,0.3,2.8,0.3,4.2c0,18.8-15.4,34.1-34.1,34.1h-25.6H48.9l1.7-3.4C61.7,204.1,61.7,180.2,50.6,161.4z M25,246.8l-1.7-3.4
				h10.2h221.9c18.8,0,34.1,15.4,34.1,34.1s-15.4,34.1-34.1,34.1H33.6H23.3l1.7-3.4C36.1,289.4,36.1,265.5,25,246.8z M50.6,332.1
				l-1.7-3.4h206.5H281c18.8,0,34.1,15.4,34.1,34.1s-15.4,34.1-34.1,34.1H48.9l1.7-3.4C61.7,374.8,61.7,350.9,50.6,332.1z
				 M494.4,448.1H16.5V414h17.1H281h101.5h1.7h110.1L494.4,448.1L494.4,448.1z"/>
			<path d="M93.3,371.3H281c5.1,0,8.5-3.4,8.5-8.5s-3.4-8.5-8.5-8.5H93.3c-5.1,0-8.5,3.4-8.5,8.5S88.2,371.3,93.3,371.3z"/>
			<path d="M67.7,286h187.7c5.1,0,8.5-3.4,8.5-8.5s-3.4-8.5-8.5-8.5H67.7c-5.1,0-8.5,3.4-8.5,8.5C59.2,282.6,62.6,286,67.7,286z"/>
			<path d="M93.3,200.7H281c5.1,0,8.5-3.4,8.5-8.5s-3.4-8.5-8.5-8.5H93.3c-5.1,0-8.5,3.4-8.5,8.5S88.2,200.7,93.3,200.7z"/>
			<path d="M357.8,182.8l26.5,99c1.7,3.4,5.1,6,8.5,6c0,0,0.9,0,1.7-0.9c4.3-0.9,6.8-6,6-10.2L374,178.5c-0.9-4.3-6-6.8-10.2-6
				S357,178.5,357.8,182.8z"/>
		</g>
	</g>
</g>
</svg>
