<?xml version="1.0" encoding="utf-8"?>
<!-- Generator: Adobe Illustrator 21.1.0, SVG Export Plug-In . SVG Version: 6.00 Build 0)  -->
<svg version="1.1" id="Layer_1" xmlns="http://www.w3.org/2000/svg" xmlns:xlink="http://www.w3.org/1999/xlink" x="0px" y="0px"
	 viewBox="0 0 70 70" style="enable-background:new 0 0 70 70;" xml:space="preserve">
<style type="text/css">
	.st0{fill:#069c41;}
</style>
<g>
	<g>
		<g>
			<path class="st0" d="M61.4,39.5H24.7c-0.8,0-1.5-0.7-1.5-1.5s0.7-1.5,1.5-1.5h36.7c0.3,0,0.6-0.3,0.6-0.6V11.5
				c0-0.3-0.3-0.6-0.6-0.6H10.1c-0.3,0-0.6,0.3-0.6,0.6v24.4c0,0.3,0.3,0.6,0.6,0.6h6.6c0.8,0,1.5,0.7,1.5,1.5s-0.7,1.5-1.5,1.5
				h-6.6c-2,0-3.6-1.6-3.6-3.6V11.5c0-2,1.6-3.6,3.6-3.6h51.3c2,0,3.6,1.6,3.6,3.6v24.4C65,37.9,63.4,39.5,61.4,39.5z"/>
		</g>
		<g>
			<g>
				<path class="st0" d="M9.2,19.2c-0.8,0-1.5-0.7-1.5-1.5s0.7-1.5,1.5-1.5c3.4,0,6.2-2.8,6.2-6.2c0-0.8,0.7-1.5,1.5-1.5
					s1.5,0.7,1.5,1.5C18.4,15,14.3,19.2,9.2,19.2z"/>
			</g>
			<g>
				<path class="st0" d="M16.9,38.9c-0.8,0-1.5-0.7-1.5-1.5c0-3.4-2.8-6.2-6.2-6.2c-0.8,0-1.5-0.7-1.5-1.5s0.7-1.5,1.5-1.5
					c5.1,0,9.2,4.1,9.2,9.2C18.4,38.3,17.7,38.9,16.9,38.9z"/>
			</g>
		</g>
		<g>
			<g>
				<path class="st0" d="M54.8,38.9c-0.8,0-1.5-0.7-1.5-1.5c0-5.1,4.1-9.2,9.2-9.2c0.8,0,1.5,0.7,1.5,1.5s-0.7,1.5-1.5,1.5
					c-3.4,0-6.2,2.8-6.2,6.2C56.3,38.3,55.7,38.9,54.8,38.9z"/>
			</g>
			<g>
				<path class="st0" d="M62.6,19.2c-5.1,0-9.2-4.1-9.2-9.2c0-0.8,0.7-1.5,1.5-1.5s1.5,0.7,1.5,1.5c0,3.4,2.8,6.2,6.2,6.2
					c0.8,0,1.5,0.7,1.5,1.5S63.4,19.2,62.6,19.2z"/>
			</g>
		</g>
		<g>
			<path class="st0" d="M36.1,34.2c-5.8,0-10.5-4.7-10.5-10.5s4.7-10.5,10.5-10.5s10.5,4.7,10.5,10.5S41.9,34.2,36.1,34.2z
				 M36.1,16.1c-4.2,0-7.5,3.4-7.5,7.5s3.4,7.5,7.5,7.5s7.5-3.4,7.5-7.5S40.2,16.1,36.1,16.1z"/>
		</g>
	</g>
	<g>
		<path class="st0" d="M39.4,65.3H20.7c-0.3,0-0.6-0.1-0.8-0.2c-3.7-2.3-4.4-11.3-4.5-13.1c0-1.5-0.3-14.1,0-16.5
			c0-0.3,0.1-0.8,0.1-1.3c0.1-2.3,0.2-7.1,5.6-7.1c1.5,0,2.7,0.5,3.6,1.5c1.7,1.9,1.6,4.9,1.5,5.6V47c2,0.3,5.8,1,9.1,3.4
			c5.5,3.9,5.6,13,5.6,13.4C40.9,64.6,40.2,65.3,39.4,65.3z M21.2,62.3h16.6c-0.2-2.4-1.1-7.2-4.2-9.4c-4-2.8-8.9-2.9-8.9-2.9
			c-0.8,0-1.5-0.7-1.5-1.5V34.2v-0.1c0.1-0.6,0-2.5-0.8-3.3c-0.2-0.2-0.5-0.5-1.3-0.5l0,0c-2.2,0-2.5,1-2.6,4.2c0,0.6,0,1.1-0.1,1.6
			c-0.2,1.6-0.1,10.4,0,15.9C18.6,55.4,19.6,60.8,21.2,62.3z"/>
	</g>
	<g>
		<path class="st0" d="M38.5,65.4c-0.8,0-1.5-0.7-1.5-1.5c0-0.8,0.7-1.5,1.5-1.5l11.1-0.1c2.5-1.4,3.5-7,3.7-9V38.7
			c0-0.8,0.7-1.5,1.5-1.5s1.5,0.7,1.5,1.5v14.7v0.1c-0.1,1-1,9.6-5.8,11.7c-0.2,0.1-0.4,0.1-0.6,0.1L38.5,65.4L38.5,65.4z"/>
	</g>
</g>
</svg>
