<?xml version="1.0" encoding="utf-8"?>
<!-- Generator: Adobe Illustrator 21.1.0, SVG Export Plug-In . SVG Version: 6.00 Build 0)  -->
<svg version="1.1" id="Layer_1" xmlns="http://www.w3.org/2000/svg" xmlns:xlink="http://www.w3.org/1999/xlink" x="0px" y="0px"
	 viewBox="0 0 70 70" style="enable-background:new 0 0 70 70;" xml:space="preserve">
<style type="text/css">
	.st0{fill:#069c41;}
</style>
<g>
	<g>
		<path class="st0" d="M57.4,66.9c-0.3,0-0.7-0.1-0.9-0.3l-11-8.6H29.1c-2.8,0-5.1-2.3-5.1-5.1V26.7c0-2.8,2.3-5.1,5.1-5.1h31.8
			c2.8,0,5.1,2.3,5.1,5.1v26.2c0,2.8-2.3,5.1-5.1,5.1H59l-0.2,7.5c0,0.6-0.3,1.1-0.9,1.3C57.8,66.8,57.6,66.9,57.4,66.9z M29.1,24.6
			c-1.2,0-2.1,0.9-2.1,2.1v26.2c0,1.1,1,2.1,2.1,2.1h16.8c0.3,0,0.7,0.1,0.9,0.3l9.1,7.1l0.1-5.9c0-0.8,0.7-1.5,1.5-1.5h3.4
			c1.2,0,2.1-0.9,2.1-2.1V26.7c0-1.2-0.9-2.1-2.1-2.1H29.1z"/>
	</g>
	<g>
		<path class="st0" d="M14.6,52.9c-0.2,0-0.4,0-0.6-0.1c-0.5-0.2-0.8-0.8-0.9-1.3L12.9,44H11c-2.8,0-5.1-2.3-5.1-5.1V12.7
			c0-2.8,2.3-5.1,5.1-5.1h31.8c2.8,0,5.1,2.3,5.1,5.1v10.4c0,0.8-0.7,1.5-1.5,1.5s-1.5-0.7-1.5-1.5V12.7c0-1.2-0.9-2.1-2.1-2.1H11
			c-1.2,0-2.1,0.9-2.1,2.1v26.2c0,1.2,0.9,2.1,2.1,2.1h3.4c0.8,0,1.5,0.7,1.5,1.5l0.1,5.9l8.1-6.3c0.7-0.5,1.6-0.4,2.1,0.3
			s0.4,1.6-0.3,2.1l-10.4,8.1C15.2,52.8,14.9,52.9,14.6,52.9z"/>
	</g>
</g>
</svg>
