<?xml version="1.0" encoding="utf-8"?>
<!-- Generator: Adobe Illustrator 21.0.0, SVG Export Plug-In . SVG Version: 6.00 Build 0)  -->
<svg version="1.1" id="Layer_1" xmlns="http://www.w3.org/2000/svg" xmlns:xlink="http://www.w3.org/1999/xlink" x="0px" y="0px"
	 width="512.9px" height="512.9px" viewBox="0 0 512.9 512.9" style="enable-background:new 0 0 512.9 512.9;" xml:space="preserve"
	>
<style type="text/css">
	.st0{fill:#15A74F;}
</style>
<g transform="translate(1 1)">
	<g>
		<g>
			<path d="M195.3,340.7h119.5h8.5c5.1,0,8.5-3.4,8.5-8.5s-3.4-8.5-8.5-8.5v-76.8c0-5.1-3.4-8.5-8.5-8.5H195.3
				c-5.1,0-8.5,3.4-8.5,8.5v76.8c-5.1,0-8.5,3.4-8.5,8.5s3.4,8.5,8.5,8.5H195.3z M263.5,323.6V298h42.7v25.6H263.5z M306.2,280.9
				h-42.7v-25.6h42.7V280.9z M246.5,255.3v25.6h-42.7v-25.6H246.5z M203.8,298h42.7v25.6h-42.7V298z"/>
			<path d="M506.7,222l-131.4-65.7v-36.3l12.8,6.4c0.9,0.9,1.7,0.9,3.4,0.9c1.7,0,3.4-0.9,4.3-0.9c2.6-1.7,4.3-5.1,4.3-7.7V76.1
				c0-3.4-1.7-6-4.3-7.7L259.3,0.2c-2.6-0.9-5.1-0.9-7.7,0L115.1,68.4c-3.4,1.7-5.1,4.3-5.1,7.7v42.7c0,2.6,1.7,6,3.4,7.7
				c2.6,0.9,6,1.7,8.5,0l13.7-6.8v36.7L4.1,222c-3.4,1.7-5.1,4.3-5.1,7.7v42.7c0,2.6,1.7,6,4.3,7.7c0.9,0.9,2.6,0.9,4.3,0.9
				s2.6,0,4.3-0.9l12.8-6.4v229.1c0,5.1,3.4,8.5,8.5,8.5h110.9h59.7h102.4h59.7h110.9c5.1,0,8.5-3.4,9.4-8.5V273.7l12.8,6.4
				c0.9,0.9,1.7,0.9,3.4,0.9s3.4,0,5.1-0.9c2.6-1.7,4.3-5.1,4.3-7.7v-42.7C511.9,226.3,509.3,223.7,506.7,222z M375.3,434.5h50.3
				v25.6h-50.3V434.5z M425.7,417.5h-50.3v-25.6h50.3V417.5z M375.3,323.6h50.3v25.6h-50.3V323.6z M425.7,306.5h-50.3v-25.6h50.3
				V306.5z M127,81.2l128-64l128,64v23.9l-11.1-5.6c-0.5-0.5-1.1-0.9-1.7-1.3L259.3,42.8c-0.4-0.1-0.9-0.3-1.3-0.3
				c-0.7-0.5-1.6-0.5-3-0.5c-1.7,0-2.6,0-3.4,0.9L140.7,98.3l-13.7,6.8V81.2z M135.5,306.5H84.3v-25.6h51.2V306.5z M84.3,323.6h51.2
				v25.6H84.3C84.3,349.2,84.3,323.6,84.3,323.6z M135.5,417.5H84.3v-25.6h51.2V417.5z M84.3,434.5h51.2v25.6H84.3
				C84.3,460.1,84.3,434.5,84.3,434.5z M16.1,234.8l119.5-59.7V199L29.7,251.9l-13.7,6.8V234.8z M41.7,265.1l93.9-46.9v45.7H75.8
				c-5.1,0-8.5,3.4-8.5,8.5v76.8c-5.1,0-8.5,3.4-8.5,8.5s3.4,8.5,8.5,8.5h8.5h59.7v8.5H75.8c-5.1,0-8.5,3.4-8.5,8.5v76.8
				c-5.1,0-8.5,3.4-8.5,8.5s3.4,8.5,8.5,8.5h8.5h59.7v17.1H41.7V265.1z M152.6,468.7v-85.3v-25.6v-85.3v-64.5
				c0.6-1.1,0.9-2.3,0.9-3.7v-42.7c0-1.4-0.3-2.7-0.9-3.8v-46.5L255,59.9l102.4,51.2v50.3v42.7v68.3v85.3v25.6v85.3v25.6h-42.7
				V383.3c0-5.1-3.4-8.5-8.5-8.5H203.8c-5.1,0-8.5,3.4-8.5,8.5v110.9h-42.7V468.7z M212.3,391.9h34.1v42.7c-5.1,0-8.5,3.4-8.5,8.5
				s3.4,8.5,8.5,8.5v42.7h-34.1V391.9z M263.5,494.3v-42.7c5.1,0,8.5-3.4,8.5-8.5s-3.4-8.5-8.5-8.5v-42.7h34.1v102.4L263.5,494.3
				L263.5,494.3z M468.3,494.3h-93v-17.1h58.9h8.5c5.1,0,8.5-3.4,8.5-8.5s-3.4-8.5-8.5-8.5v-76.8c0-5.1-3.4-8.5-8.5-8.5h-58.9v-8.5
				h58.9h8.5c5.1,0,8.5-3.4,8.5-8.5s-3.4-8.5-8.5-8.5v-76.8c0-5.1-3.4-8.5-8.5-8.5h-58.9v-45.7l49.9,25l43.1,21.6V494.3z
				 M493.9,258.7l-11.1-5.6c-0.5-0.5-1.1-0.9-1.7-1.3L375.3,199v-23.5l118.6,59.3V258.7z"/>
		</g>
	</g>
</g>
<rect x="240" y="104.9" class="st0" width="31" height="105.2"/>
<rect x="240" y="103.6" transform="matrix(-1.836970e-16 1 -1 -1.836970e-16 413 -98)" class="st0" width="31" height="107.7"/>
</svg>
