<?xml version="1.0" encoding="utf-8"?>
<!-- Generator: Adobe Illustrator 21.0.0, SVG Export Plug-In . SVG Version: 6.00 Build 0)  -->
<svg version="1.1" id="Layer_1" xmlns="http://www.w3.org/2000/svg" xmlns:xlink="http://www.w3.org/1999/xlink" x="0px" y="0px"
	 viewBox="0 0 70 70" style="enable-background:new 0 0 70 70;" xml:space="preserve">
<style type="text/css">
	.st0{fill:#069c41;}
</style>
<g>
	<path class="st0" d="M53.1,65.5H13.8c-3.6,0-6.5-2.9-6.5-6.5V15.5C7.3,12,10.2,9,13.8,9h39.2c3.6,0,6.5,2.9,6.5,6.5V59
		C59.6,62.6,56.6,65.5,53.1,65.5z M13.8,12c-1.9,0-3.5,1.6-3.5,3.5V59c0,1.9,1.6,3.5,3.5,3.5h39.2c1.9,0,3.5-1.6,3.5-3.5V15.5
		c0-1.9-1.6-3.5-3.5-3.5H13.8z"/>
</g>
<g>
	<path class="st0" d="M46.7,22.3H20.1c-0.6,0-1.2-0.4-1.4-0.9l-4.2-10.3c-0.2-0.5-0.1-1,0.1-1.4C15,9.3,15.4,9,15.9,9h35
		c0.5,0,1,0.2,1.2,0.7c0.3,0.4,0.3,0.9,0.1,1.4l-4.2,10.3C47.9,21.9,47.3,22.3,46.7,22.3z M21.2,19.3h24.6l3-7.3H18.2L21.2,19.3z"/>
</g>
<g>
	<path class="st0" d="M33.4,12c-0.8,0-1.5-0.7-1.5-1.5V4.1c0-0.8,0.7-1.5,1.5-1.5s1.5,0.7,1.5,1.5v6.5C34.9,11.4,34.3,12,33.4,12z"
		/>
</g>
<g>
	<path class="st0" d="M46.2,33.5H20.7c-0.8,0-1.5-0.7-1.5-1.5s0.7-1.5,1.5-1.5h25.5c0.8,0,1.5,0.7,1.5,1.5S47,33.5,46.2,33.5z"/>
</g>
<g>
	<path class="st0" d="M39.4,54.8C39.4,54.8,39.4,54.8,39.4,54.8c-0.5,0-0.9-0.2-1.2-0.5L31,45.6c-0.5-0.6-0.4-1.6,0.2-2.1
		s1.6-0.4,2.1,0.2l6.1,7.3l9.4-10.8c0.4-0.4,8.6-9.4,16.1-9.7c0.8-0.1,1.5,0.6,1.6,1.4c0,0.8-0.6,1.5-1.4,1.6
		c-5.2,0.2-11.9,6.4-14,8.7L40.6,54.3C40.3,54.6,39.9,54.8,39.4,54.8z"/>
</g>
</svg>