<?xml version="1.0" encoding="utf-8"?>
<!-- Generator: Adobe Illustrator 21.0.0, SVG Export Plug-In . SVG Version: 6.00 Build 0)  -->
<svg version="1.1" id="Capa_1" xmlns="http://www.w3.org/2000/svg" xmlns:xlink="http://www.w3.org/1999/xlink" x="0px" y="0px"
	 width="56px" height="56px" viewBox="0 0 56 56" style="enable-background:new 0 0 56 56;" xml:space="preserve">
<style type="text/css">
	.st0{fill:#15A74F;}
</style>
<path class="st0" d="M35.1,25.5L41.4,7l12.9,37.1H31.4c0,0,5-5,5-6.8s0.5-6.9-0.4-9.4S35.1,25.5,35.1,25.5z"/>
<path class="st0" d="M2.2,7.8l2.3-3.4l3.9-2.5l4.1-0.6l2.8,1.6c0,0,1.3,2,1.3,2.2S16.8,7,16.8,7l2.4,0.8l0.4,1.8
	c0,0-0.4,1.8-0.4,1.9s-1.7,0.8-2,0.8s-5.4,0.3-5.4,0.3s-6-0.6-6.1-0.6s-2.1-0.3-2.1-0.3l-2-2.2L2.2,7.8z"/>
<g>
	<path d="M55.1,43.7L42.4,6.2c-0.1-0.4-0.5-0.7-0.9-0.7s-0.8,0.3-0.9,0.7l-6,17.8c-2.6-3-6.4-5-10.7-5c-7.7,0-14,6.3-14,14
		c0,7.4,5.7,13.4,13,13.9V55c0,0.6,0.4,1,1,1s1-0.4,1-1v-8.1c2.2-0.2,4.3-0.9,6.2-1.9h9.8v10c0,0.6,0.4,1,1,1s1-0.4,1-1V45h11.3
		c0.3,0,0.6-0.2,0.8-0.4C55.1,44.3,55.2,44,55.1,43.7z M24.8,41.4l2.7-2.7c0.4-0.4,0.4-1,0-1.4s-1-0.4-1.4,0l-2.3,2.3l-2.3-2.3
		c-0.4-0.4-1-0.4-1.4,0s-0.4,1,0,1.4l2.7,2.7v3.5c-6.1-0.5-11-5.7-11-11.9c0-6.6,5.4-12,12-12c4.4,0,8.2,2.3,10.3,5.8
		c0.4,0.6,0.7,1.2,0.9,1.9c0,0.1,0.1,0.2,0.1,0.4c0.1,0.2,0.1,0.4,0.2,0.6c0.1,0.2,0.1,0.5,0.2,0.7c0,0.2,0.1,0.3,0.1,0.5
		c0,0.2,0.1,0.5,0.1,0.7c0,0.1,0,0.2,0,0.3c0,0.4,0.1,0.7,0.1,1.1c0,0.5,0,0.9-0.1,1.4c0,0.1,0,0.3-0.1,0.4c0,0.3-0.1,0.6-0.2,0.9
		c0,0.2-0.1,0.3-0.1,0.5c-0.1,0.3-0.2,0.6-0.3,0.9c-0.1,0.2-0.1,0.3-0.2,0.5c-0.2,0.4-0.3,0.8-0.6,1.2c-0.1,0.1-0.1,0.2-0.2,0.3
		c-0.2,0.3-0.3,0.5-0.5,0.8c-0.1,0.1-0.2,0.3-0.3,0.4c-0.2,0.3-0.4,0.5-0.6,0.7c-0.1,0.1-0.2,0.2-0.3,0.3c-0.7,0.7-1.4,1.3-2.2,1.8
		c-1.6,1-3.4,1.7-5.4,1.8L24.8,41.4L24.8,41.4z M42.8,43v-1.6l2.7-2.7c0.4-0.4,0.4-1,0-1.4s-1-0.4-1.4,0l-2.3,2.3l-2.3-2.3
		c-0.4-0.4-1-0.4-1.4,0s-0.4,1,0,1.4l2.7,2.7V43h-7.2c0,0,0,0,0,0c0.2-0.2,0.3-0.4,0.5-0.5c0.2-0.2,0.3-0.3,0.5-0.5
		c0.1-0.1,0.1-0.1,0.2-0.2c1.6-2,2.7-4.5,3-7.2c0,0,0-0.1,0-0.1c0-0.5,0.1-0.9,0.1-1.4c0-0.4,0-0.8-0.1-1.2c0-0.1,0-0.2,0-0.3
		c0-0.4-0.1-0.8-0.2-1.1c0-0.1-0.1-0.3-0.1-0.4c-0.1-0.2-0.1-0.5-0.2-0.7c-0.1-0.2-0.1-0.4-0.2-0.5c-0.1-0.2-0.1-0.4-0.2-0.6
		c-0.1-0.3-0.2-0.6-0.4-0.9c-0.1-0.1-0.1-0.3-0.2-0.4c-0.1-0.2-0.2-0.4-0.3-0.6c0,0,0,0,0-0.1l5.5-16.4L52.8,43L42.8,43L42.8,43z"/>
	<path d="M20.8,9.6c0-1.9-1.3-3.5-3-3.8C17.4,1.5,14.4,0,11.6,0C7.8,0,5.8,2.3,5,3.3C2.7,3.6,0.8,5.8,0.8,8.4c0,2.8,2.1,5.1,4.8,5.1
		h11.6C19.2,13.5,20.8,11.8,20.8,9.6z M2.8,8.4c0-1.7,1.2-3.1,2.8-3.1c0.4,0,0.7-0.2,0.9-0.5C6.5,4.6,8,2,11.6,2
		c1.6,0,4.2,0.6,4.2,4.8c0,0.6,0.4,1,1,1h0.4c0.9,0,1.6,0.8,1.6,1.9s-0.7,1.9-1.6,1.9H5.6C4.1,11.5,2.8,10.1,2.8,8.4z"/>
</g>
</svg>
