<?xml version="1.0" encoding="utf-8"?>
<!-- Generator: Adobe Illustrator 21.0.0, SVG Export Plug-In . SVG Version: 6.00 Build 0)  -->
<svg version="1.1" id="Layer_1" xmlns="http://www.w3.org/2000/svg" xmlns:xlink="http://www.w3.org/1999/xlink" x="0px" y="0px"
	 viewBox="0 0 70 70" style="enable-background:new 0 0 70 70;" xml:space="preserve">
<style type="text/css">
	.st0{fill:#069c41;}
</style>
<g>
	<path class="st0" d="M36.1,55L36.1,55c-0.5,0-0.9-0.2-1.2-0.6c-0.7-0.9-16.8-23.2-16.8-32.7c0-9.9,8.1-18,18-18s18,8.1,18,18
		c0,9.5-16.1,31.8-16.8,32.7C37,54.7,36.6,55,36.1,55z M36.1,6.6c-8.3,0-15,6.7-15,15c0,6.5,9.9,22,15,29.3c5.1-7.3,15-22.7,15-29.3
		C51.1,13.4,44.4,6.6,36.1,6.6z"/>
</g>
<g>
	<path class="st0" d="M36.1,27.8c-3.8,0-6.8-3.1-6.8-6.8s3.1-6.8,6.8-6.8s6.8,3.1,6.8,6.8S39.9,27.8,36.1,27.8z M36.1,17.2
		c-2.1,0-3.8,1.7-3.8,3.8s1.7,3.8,3.8,3.8s3.8-1.7,3.8-3.8S38.2,17.2,36.1,17.2z"/>
</g>
<g>
	<path class="st0" d="M35.8,66.1c-15,0-26.3-4.8-26.3-11.3c0-4,4.4-7.5,12-9.6c0.8-0.2,1.6,0.3,1.8,1.1s-0.3,1.6-1.1,1.8
		c-6,1.6-9.8,4.2-9.8,6.7c0,3.9,9.6,8.3,23.3,8.3c13.7,0,23.3-4.4,23.3-8.3c0-2.6-4.1-5.3-10.5-6.8c-0.8-0.2-1.3-1-1.1-1.8
		s1-1.3,1.8-1.1c8.1,2,12.8,5.6,12.8,9.8C62.1,61.2,50.8,66.1,35.8,66.1z"/>
</g>
</svg>