<?xml version="1.0" encoding="utf-8"?>
<!-- Generator: Adobe Illustrator 21.0.0, SVG Export Plug-In . SVG Version: 6.00 Build 0)  -->
<svg version="1.1" id="Layer_1" xmlns="http://www.w3.org/2000/svg" xmlns:xlink="http://www.w3.org/1999/xlink" x="0px" y="0px"
	 viewBox="0 0 70 70" style="enable-background:new 0 0 70 70;" xml:space="preserve">
<style type="text/css">
	.st0{fill:#069c41;}
</style>
<g>
	<g>
		<path class="st0" d="M48.5,29.9c-0.1,0-0.3,0-0.4-0.1c-0.4-0.1-0.7-0.4-0.9-0.7c-1.1-1.9-2.6-3.5-4.5-4.6
			c-0.4-0.2-0.6-0.5-0.7-0.9s0-0.8,0.2-1.2l8.3-13.3c0.4-0.7,1.3-0.9,2-0.5c4.4,2.7,8.1,6.4,10.7,10.9c0.4,0.7,0.2,1.6-0.5,2
			l-13.3,8.1C49.1,29.9,48.8,29.9,48.5,29.9z M45.5,22.8c1.4,1,2.6,2.2,3.5,3.6l10.8-6.5c-2-3.1-4.6-5.7-7.6-7.8L45.5,22.8z"/>
	</g>
	<g>
		<path class="st0" d="M28.8,25.4c-0.1,0-0.2,0-0.3,0c-0.4-0.1-0.8-0.3-1-0.7l-8-13.4c-0.4-0.7-0.2-1.6,0.5-2
			c5-3.2,10.7-4.9,16.7-4.9c5.6,0,11.1,1.5,15.9,4.4c0.3,0.2,0.6,0.5,0.7,0.9c0.1,0.4,0,0.8-0.2,1.1L44.7,24c-0.4,0.7-1.3,0.9-2,0.5
			c-1.9-1.1-4-1.6-6.1-1.6c-2.5,0-4.9,0.8-7,2.2C29.4,25.3,29.1,25.4,28.8,25.4z M22.8,11l6.4,10.8c2.2-1.3,4.8-1.9,7.4-1.9
			c2.2,0,4.3,0.5,6.3,1.4l6.7-10.8c-4-2.1-8.4-3.2-13-3.2C31.8,7.3,27,8.6,22.8,11z"/>
	</g>
	<g>
		<path class="st0" d="M24.5,30.3c-0.3,0-0.6-0.1-0.8-0.2l-13.2-8.4c-0.7-0.4-0.9-1.3-0.5-2c2.4-4.2,5.9-7.8,9.9-10.5
			C20.3,9,20.7,8.9,21.1,9c0.4,0.1,0.7,0.3,0.9,0.7l8,13.4c0.4,0.7,0.2,1.5-0.4,2c-1.6,1.1-2.9,2.6-3.8,4.4
			c-0.2,0.4-0.5,0.7-0.9,0.8C24.8,30.3,24.6,30.3,24.5,30.3z M13.4,19.9L24,26.7c0.8-1.2,1.7-2.3,2.8-3.2l-6.5-10.9
			C17.6,14.6,15.2,17.1,13.4,19.9z"/>
	</g>
	<g>
		<path class="st0" d="M60.6,53.2c-0.3,0-0.6-0.1-0.8-0.2l-13.2-8.4c-0.4-0.2-0.6-0.6-0.7-1s0-0.8,0.3-1.2c1.7-2.1,2.6-4.7,2.6-7.4
			c0-2-0.5-4.1-1.5-5.8c-0.4-0.7-0.2-1.6,0.5-2l13.3-8.1c0.3-0.2,0.8-0.3,1.1-0.2c0.4,0.1,0.7,0.4,0.9,0.7c2.7,4.7,4.1,10,4.1,15.4
			c0,6.3-1.9,12.4-5.6,17.6C61.5,53,61,53.2,60.6,53.2z M49.5,42.9l10.6,6.8c2.8-4.4,4.2-9.5,4.2-14.7c0-4.4-1-8.7-3-12.6L50.5,29
			c0.8,1.9,1.2,3.9,1.2,6C51.7,37.8,51,40.5,49.5,42.9z"/>
	</g>
	<g>
		<path class="st0" d="M36.6,65.7C30.7,65.7,25,64,20,60.8c-0.7-0.4-0.9-1.4-0.5-2.1l8.3-13.2c0.2-0.3,0.6-0.6,1-0.7
			c0.4-0.1,0.8,0,1.1,0.2c3.5,2.4,8.2,2.7,12.1,0.8c0.7-0.3,1.6-0.1,2,0.6l8,13.4c0.2,0.3,0.3,0.8,0.2,1.2c-0.1,0.4-0.4,0.7-0.7,0.9
			C46.8,64.4,41.8,65.7,36.6,65.7z M22.9,59.1c4.2,2.4,8.9,3.6,13.7,3.6c4.1,0,8.2-0.9,11.9-2.7L42,49.1c-4,1.6-8.7,1.3-12.4-0.8
			L22.9,59.1z"/>
	</g>
	<g>
		<path class="st0" d="M50.6,62.2c-0.5,0-1-0.3-1.3-0.7l-8-13.4c-0.2-0.4-0.3-0.8-0.1-1.2s0.4-0.7,0.8-0.9c1.6-0.8,3.1-2,4.2-3.4
			c0.5-0.6,1.3-0.8,2-0.3l13.2,8.4c0.3,0.2,0.6,0.6,0.7,1s0,0.8-0.2,1.2c-2.7,3.9-6.3,7.1-10.5,9.4C51.1,62.1,50.9,62.2,50.6,62.2z
			 M44.7,47.8l6.4,10.8c2.8-1.7,5.2-3.9,7.3-6.5l-10.7-6.8C46.8,46.2,45.8,47.1,44.7,47.8z"/>
	</g>
	<g>
		<path class="st0" d="M12,52.2c-0.5,0-1-0.2-1.3-0.7C7.6,46.5,5.9,40.8,5.9,35c0-5.4,1.4-10.7,4.1-15.3c0.2-0.4,0.5-0.6,0.9-0.7
			c0.4-0.1,0.8,0,1.2,0.2l13.2,8.4c0.7,0.4,0.9,1.3,0.5,1.9c-0.9,1.7-1.3,3.6-1.3,5.5c0,2.4,0.7,4.7,2,6.7c0.2,0.3,0.3,0.8,0.2,1.2
			c-0.1,0.4-0.3,0.7-0.7,1l-13.3,8.1C12.5,52.1,12.2,52.2,12,52.2z M11.9,22.5c-1.9,3.9-3,8.1-3,12.5c0,4.8,1.2,9.4,3.6,13.6
			L23.2,42c-1.1-2.2-1.7-4.6-1.7-7c0-1.9,0.4-3.8,1.1-5.6L11.9,22.5z"/>
	</g>
	<g>
		<path class="st0" d="M20.8,61.1c-0.3,0-0.6-0.1-0.8-0.2c-3.7-2.4-6.9-5.6-9.3-9.4c-0.2-0.3-0.3-0.8-0.2-1.1
			c0.1-0.4,0.3-0.7,0.7-0.9l13.3-8.1c0.7-0.4,1.6-0.2,2,0.4c0.9,1.3,2,2.5,3.4,3.4c0.7,0.5,0.9,1.4,0.4,2l-8.3,13.2
			c-0.2,0.3-0.6,0.6-0.9,0.7C21,61,20.9,61.1,20.8,61.1z M14.1,51.1c1.7,2.4,3.9,4.6,6.3,6.3l6.7-10.7c-0.8-0.6-1.5-1.4-2.2-2.2
			L14.1,51.1z"/>
	</g>
</g>
</svg>