<svg xmlns="http://www.w3.org/2000/svg" viewBox="0 0 511.999 511.999"><path class="item item-2" d="M291.136 342.392c19.204-11.834 32.037-33.054 32.037-57.219V233.84c0-37.037-30.131-67.169-67.169-67.169-37.037 0-67.169 30.132-67.169 67.169v51.332c0 24.165 12.832 45.384 32.037 57.219-55.325 15.855-97.204 66.045-97.204 123.019v39.072a7.517 7.517 0 0 0 7.517 7.517h50.636a7.517 7.517 0 0 0 0-15.034H138.7V465.41c0-29.439 12.562-57.586 35.372-79.258 13.635-12.955 30.143-22.606 47.755-28.237l11.906 23.132-15.996 69.438a7.518 7.518 0 0 0 2.25 7.232l30.942 28.319a7.497 7.497 0 0 0 5.074 1.971 7.496 7.496 0 0 0 5.074-1.971l30.942-28.319a7.518 7.518 0 0 0 2.25-7.232l-15.996-69.439 11.906-23.131c17.612 5.631 34.119 15.283 47.755 28.237 22.81 21.672 35.372 49.82 35.372 79.258v31.556H206.874a7.517 7.517 0 0 0 0 15.034h173.95a7.517 7.517 0 0 0 7.517-7.517V465.41c-.002-56.973-41.88-107.163-97.205-123.018zm-87.269-108.551c0-28.747 23.389-52.136 52.136-52.136 28.748 0 52.136 23.389 52.136 52.136v17.426c-23.628-4.484-33.2-28.529-33.626-29.629a7.517 7.517 0 0 0-13.644-.906c-.159.295-15.563 27.94-57.002 30.986v-17.877zm74.769 215.748l-22.634 20.715-22.633-20.715 14.287-62.019h16.692l14.288 62.019zm-41.839-95.437c.626-.115 1.254-.222 1.881-.328.421-.069.842-.138 1.264-.203a114.03 114.03 0 0 1 5.596-.736 118.941 118.941 0 0 1 5.301-.446c.303-.018.606-.031.909-.047.867-.045 1.733-.067 2.6-.092.552.013 1.1.042 1.655.042.555 0 1.103-.029 1.655-.042.866.025 1.733.048 2.6.092.303.016.606.029.91.047a112.991 112.991 0 0 1 5.301.446 121.373 121.373 0 0 1 5.596.736c.422.065.843.134 1.264.203.627.105 1.255.212 1.881.328l-9.465 18.385H246.26l-9.463-18.385zm21.22-16.895c-.636-.018-1.272-.041-1.911-.05a7.005 7.005 0 0 0-.205 0c-.638.009-1.274.032-1.91.05-27.817-1.062-50.123-24.012-50.123-52.084v-18.389c33.199-2.081 52.799-17.672 62.531-28.493 6.849 10.641 20.036 25.313 41.741 28.211v18.67c-.001 28.073-22.306 51.022-50.123 52.085zm-86.571-228.793c-1.666-5.127-6.014-8.794-11.35-9.569l-34.178-4.966-15.285-30.97c-2.385-4.834-7.217-7.837-12.608-7.837a13.974 13.974 0 0 0-12.607 7.837L70.137 93.928l-34.178 4.966c-5.335.775-9.683 4.442-11.349 9.569-1.666 5.126-.302 10.648 3.558 14.411L52.9 146.981l-5.839 34.04c-.911 5.313 1.232 10.582 5.593 13.75a14.012 14.012 0 0 0 8.25 2.7c2.234 0 4.481-.539 6.556-1.631l30.569-16.071 30.568 16.071c4.772 2.51 10.444 2.1 14.806-1.069s6.504-8.437 5.592-13.75l-5.839-34.039 24.732-24.107c3.861-3.762 5.224-9.285 3.558-14.411zm-39.148 28.109a14.062 14.062 0 0 0-4.044 12.444l5.591 32.599-29.276-15.391a14.057 14.057 0 0 0-13.084 0L62.21 181.616l5.591-32.599a14.055 14.055 0 0 0-4.044-12.444l-23.684-23.087 32.731-4.756a14.059 14.059 0 0 0 10.586-7.69l14.638-29.66 14.637 29.659a14.055 14.055 0 0 0 10.585 7.69l32.731 4.756-23.683 23.088zm197.268-83.23c-1.666-5.126-6.014-8.793-11.349-9.568l-34.178-4.967-15.286-30.97C266.367 3.004 261.536 0 256.145 0c-5.391 0-10.222 3.004-12.608 7.837l-15.285 30.97-34.178 4.967c-5.335.775-9.683 4.442-11.348 9.568-1.666 5.126-.303 10.648 3.557 14.412l24.733 24.106-5.838 34.04c-.911 5.313 1.232 10.582 5.593 13.75 4.361 3.169 10.033 3.579 14.806 1.07l30.569-16.071 30.57 16.071a14.08 14.08 0 0 0 6.554 1.63c2.902 0 5.786-.91 8.25-2.7 4.362-3.169 6.504-8.438 5.593-13.75l-5.838-34.039 24.732-24.107c3.861-3.762 5.224-9.285 3.559-14.411zm-39.151 28.111a14.06 14.06 0 0 0-4.044 12.444l5.591 32.599-29.277-15.392a14.055 14.055 0 0 0-13.082 0l-29.276 15.391 5.591-32.598a14.057 14.057 0 0 0-4.043-12.444l-23.684-23.087 32.73-4.756a14.055 14.055 0 0 0 10.585-7.691l14.637-29.659 14.637 29.658a14.058 14.058 0 0 0 10.586 7.692l32.731 4.756-23.682 23.087zm196.975 27.009c-1.666-5.127-6.014-8.793-11.349-9.569l-34.178-4.966-15.284-30.97c-2.385-4.834-7.217-7.837-12.608-7.837s-10.222 3.004-12.608 7.837l-15.284 30.97-34.179 4.966c-5.335.775-9.683 4.442-11.349 9.569-1.666 5.127-.302 10.649 3.558 14.411l24.732 24.107-5.838 34.04c-.911 5.313 1.232 10.582 5.593 13.75a14.01 14.01 0 0 0 8.25 2.7c2.234 0 4.48-.539 6.555-1.631l30.569-16.071 30.569 16.07c4.77 2.509 10.444 2.099 14.806-1.069 4.362-3.169 6.504-8.438 5.593-13.75l-5.838-34.04 24.731-24.107c3.861-3.76 5.224-9.283 3.559-14.41zm-39.149 28.11a14.058 14.058 0 0 0-4.044 12.444l5.591 32.599-29.275-15.39a14.054 14.054 0 0 0-13.085-.001l-29.276 15.391 5.591-32.598a14.054 14.054 0 0 0-4.043-12.444l-23.684-23.087 32.732-4.756a14.056 14.056 0 0 0 10.585-7.69l14.637-29.66 14.638 29.661a14.059 14.059 0 0 0 10.584 7.689l32.731 4.756-23.682 23.086z"/></svg>