<svg xmlns="http://www.w3.org/2000/svg" viewBox="0 0 512 512"><path class="item item-6" d="M504.496 83.003A7.504 7.504 0 0 0 512 75.499V40.504A7.504 7.504 0 0 0 504.496 33H7.504A7.504 7.504 0 0 0 0 40.504v34.995a7.504 7.504 0 0 0 7.504 7.504h22.424v268.614H7.504A7.504 7.504 0 0 0 0 359.121v34.995a7.504 7.504 0 0 0 7.504 7.504h20.917c-4.839 11.697-7.515 24.316-7.515 37.37v32.506A7.504 7.504 0 0 0 28.41 479h202.491a7.504 7.504 0 0 0 7.504-7.504V438.99c0-13.054-2.676-25.673-7.515-37.37h156.274a7.504 7.504 0 0 0 0-15.008H223.213c-.192-.31-.395-.614-.591-.922-.175-.277-.353-.552-.531-.828-.291-.449-.581-.898-.879-1.344-.474-.711-.957-1.416-1.448-2.116l-.074-.107a110.924 110.924 0 0 0-12.361-14.67h289.663v19.987h-84.814a7.504 7.504 0 0 0 0 15.008h92.318a7.504 7.504 0 0 0 7.504-7.504V359.12a7.504 7.504 0 0 0-7.504-7.504h-22.424V83.003h22.424zM15.008 386.613v-19.987h36.974a110.901 110.901 0 0 0-12.363 14.673l-.054.079a106.854 106.854 0 0 0-2.337 3.476c-.181.281-.362.561-.54.843-.196.305-.397.607-.588.916H15.008zm197.39 11.185c.108.192.235.367.358.547 6.955 12.562 10.645 26.415 10.645 40.646v25.002H35.914v-25.002c0-14.229 3.688-28.081 10.642-40.641.124-.181.253-.359.361-.552 4.881-8.67 11.276-16.629 18.826-23.503a98.18 98.18 0 0 1 4.215-3.624c.123-.1.243-.203.367-.303a102.641 102.641 0 0 1 5.374-4.021 99.973 99.973 0 0 1 25.543-12.823l8.865 17.222-12.86 55.822a7.505 7.505 0 0 0 2.246 7.22l25.099 22.97a7.481 7.481 0 0 0 5.066 1.968 7.49 7.49 0 0 0 5.067-1.968l25.099-22.97a7.502 7.502 0 0 0 2.246-7.22l-12.86-55.822 8.865-17.222a99.99 99.99 0 0 1 25.564 12.838c.696.487 1.385.983 2.067 1.486a96.222 96.222 0 0 1 3.278 2.515c.146.117.288.239.433.357a98.89 98.89 0 0 1 3.679 3.144c.162.145.323.292.484.438 7.546 6.872 13.94 14.828 18.818 23.496zm-74.494-140.777c5.814 8.489 16.213 19.218 32.634 21.85v13.923c0 21.992-17.457 39.975-39.241 40.84-.458-.013-.915-.029-1.375-.036l-.163-.005a7.073 7.073 0 0 0-.206 0l-.163.005c-.459.007-.917.023-1.375.036-21.784-.865-39.24-18.848-39.24-40.84V279.19c25.273-1.941 40.826-13.447 49.129-22.169zm-49.13 7.109v-12.975c0-4.931.877-9.661 2.484-14.043 5.74-15.644 20.786-26.839 38.398-26.839 16.203 0 30.233 9.474 36.844 23.174a40.651 40.651 0 0 1 4.037 17.709v12.383c-17.162-4.279-24.232-21.955-24.552-22.78-1.041-2.747-3.577-4.656-6.509-4.851a7.479 7.479 0 0 0-7.089 3.903c-.52.936-12.3 21.424-43.613 24.319zm35.232 113.129h11.3l11.153 48.414-16.803 15.379-16.803-15.379 11.153-48.414zm-7.803-27.456c1.43-.233 2.864-.43 4.3-.596.203-.023.406-.043.608-.065a92.125 92.125 0 0 1 3.477-.309c.323-.023.646-.049.969-.068a89.84 89.84 0 0 1 2.842-.112c.419.009.834.032 1.256.032.421 0 .836-.022 1.255-.032.948.027 1.895.056 2.842.113.323.019.645.045.969.068a92.23 92.23 0 0 1 3.479.309c.202.022.404.041.606.065 1.437.166 2.872.363 4.301.596l-6.406 12.447h-14.09l-6.408-12.448zM474.568 67.995H123.033a7.504 7.504 0 0 0 0 15.008h344.031v268.615h-278.32a113.15 113.15 0 0 0-27.302-12.89c14.551-10.1 24.104-26.919 24.104-45.934v-41.637c0-1.731-.09-3.44-.245-5.131h13.2v65.55a7.504 7.504 0 0 0 15.008 0v-65.55h83.851l21.623 46.432a7.503 7.503 0 0 0 6.802 4.336h.054a7.504 7.504 0 0 0 6.794-4.434l20.775-46.334h11.086a7.497 7.497 0 0 0 7.348 9.005 7.483 7.483 0 0 0 5.34-2.231l8.892-9.005a7.504 7.504 0 0 0 0-10.545l-8.892-9.004a7.502 7.502 0 0 0-12.688 6.773h-57.567l-22.933-49.248a7.505 7.505 0 0 0-12.927-1.168l-5.872 8.294-14.049-30.773a7.505 7.505 0 0 0-6.7-4.386c-2.896-.028-5.554 1.569-6.844 4.158l-24.093 48.382v-76.123a7.48 7.48 0 0 0 6.841-2.078 7.504 7.504 0 0 0-.067-10.612l-9.005-8.892a7.504 7.504 0 0 0-10.545 0l-9.005 8.892a7.504 7.504 0 0 0-.067 10.612 7.494 7.494 0 0 0 6.841 2.076v100.866h-15.43c-.426 0-.841.044-1.249.112-8.071-20.951-28.404-35.863-52.165-35.863-30.818 0-55.889 25.073-55.889 55.89v41.636c0 19.015 9.553 35.833 24.104 45.934a113.114 113.114 0 0 0-27.302 12.89H44.936V83.003H98.02a7.504 7.504 0 0 0 0-15.008H15.008V48.008h481.984v19.987h-22.424zM217.955 231.018l26.07-52.354 12.931 28.327a7.503 7.503 0 0 0 12.951 1.219l5.937-8.386 14.526 31.193h-72.415zm95.96 15.008h23.044l-11.303 25.211-11.741-25.211z"/></svg>