<svg xmlns="http://www.w3.org/2000/svg" viewBox="0 0 511.999 511.999"><path class="item item-4" d="M414.098 341.348c19.368-11.889 32.316-33.261 32.316-57.606V232.08c0-37.246-30.302-67.548-67.547-67.548l-.038.001-.038-.001a67.384 67.384 0 0 0-20.385 3.146V50.96a7.512 7.512 0 0 0-7.512-7.512h-64.175v-9.613a7.511 7.511 0 0 0-7.512-7.512h-60.993c-6.327-15.743-21.615-26.3-39.011-26.3-17.396 0-32.685 10.556-39.012 26.3H79.199a7.512 7.512 0 0 0-7.512 7.512v9.613H7.512A7.512 7.512 0 0 0 0 50.96v419.491a7.511 7.511 0 0 0 7.512 7.512h238.221v26.499a7.511 7.511 0 0 0 7.512 7.512h56.032a7.511 7.511 0 0 0 7.512-7.512 7.511 7.511 0 0 0-7.512-7.512h-48.52v-31.812c0-1.401.038-2.799.094-4.193.011-.275.02-.551.033-.825.062-1.297.151-2.59.261-3.88.031-.366.067-.73.102-1.095.116-1.205.248-2.408.406-3.606.053-.4.114-.798.171-1.198.137-.953.288-1.902.451-2.85.083-.483.162-.966.252-1.446.177-.948.377-1.892.58-2.836.019-.076.043-.15.06-.226a107.56 107.56 0 0 1 6.585-20.173c.064-.144.13-.287.194-.432a107.875 107.875 0 0 1 1.667-3.567c.423-.86.847-1.72 1.294-2.571.146-.28.292-.561.441-.841 3.679-6.88 8.135-13.491 13.355-19.752a120.874 120.874 0 0 1 6.585-7.267 123.219 123.219 0 0 1 6.578-6.227c.097-.085.193-.172.291-.257 1.098-.96 2.215-1.899 3.345-2.82l.499-.402a125.147 125.147 0 0 1 3.417-2.663c.099-.074.2-.145.3-.219a123.93 123.93 0 0 1 2.985-2.149c.374-.261.746-.525 1.123-.782.944-.646 1.898-1.278 2.859-1.898.58-.374 1.164-.74 1.75-1.104.441-.274.885-.543 1.329-.812a128.32 128.32 0 0 1 3.93-2.286l.251-.14a125.698 125.698 0 0 1 22.555-9.731l12.012 23.338-16.104 69.902a7.51 7.51 0 0 0 2.249 7.228l31.141 28.502a7.49 7.49 0 0 0 5.072 1.97 7.49 7.49 0 0 0 5.071-1.97l31.141-28.502a7.512 7.512 0 0 0 2.249-7.228l-16.104-69.903 12.011-23.337c17.749 5.668 34.385 15.391 48.124 28.445 22.968 21.821 35.616 50.163 35.616 79.805v31.811H334.317c-4.15 0-7.512 3.363-7.512 7.512s3.362 7.512 7.512 7.512h170.17a7.511 7.511 0 0 0 7.512-7.512V465.14c.001-57.357-42.187-107.877-97.901-123.792zm-59.682-155.693c.122-.065.232-.146.35-.218a52.183 52.183 0 0 1 24.062-5.877c28.988.02 52.563 23.606 52.563 52.597v17.635c-23.899-4.486-33.574-28.797-34.004-29.91a7.517 7.517 0 0 0-6.528-4.834 7.503 7.503 0 0 0-7.109 3.928c-.16.297-15.678 28.145-57.407 31.248v-18.143a53.43 53.43 0 0 1 .095-3.049c.038-.656.088-1.308.149-1.957.02-.207.039-.416.061-.622a54.292 54.292 0 0 1 .4-2.918c.066-.4.139-.797.214-1.194.127-.674.268-1.344.422-2.011.061-.264.118-.529.183-.792a47.445 47.445 0 0 1 .518-1.925 52.32 52.32 0 0 1 1.594-4.698l.013-.032c4.529-11.468 13.065-21.197 24.424-27.228zM86.711 41.347h58.936a7.512 7.512 0 0 0 7.296-5.723 26.968 26.968 0 0 1 26.26-20.577 26.968 26.968 0 0 1 26.259 20.577 7.511 7.511 0 0 0 7.296 5.723h58.937v43.036H86.711V41.347zm231.97 102.544a7.511 7.511 0 0 0-7.512 7.512v203.95a139.6 139.6 0 0 0-23.318 17.331l-.338.305-.04.038c-11.068 10.181-20.251 21.975-27.162 34.876-.253.47-.492.946-.739 1.418-.346.665-.686 1.331-1.02 2.002a121.406 121.406 0 0 0-8.63 22.537H47.236V317.694a7.511 7.511 0 0 0-7.512-7.512 7.512 7.512 0 0 0-7.512 7.512v123.678a7.512 7.512 0 0 0 7.512 7.512h207.138a119.237 119.237 0 0 0-.609 5.354c-.074.789-.14 1.581-.198 2.373-.04.565-.084 1.129-.116 1.695-.082 1.402-.137 2.81-.168 4.222-.003.137-.014.274-.016.412H15.024V58.472h56.663V69.88H39.724a7.512 7.512 0 0 0-7.512 7.512v215.263a7.512 7.512 0 0 0 7.512 7.512 7.511 7.511 0 0 0 7.512-7.512V84.903h24.451v6.991a7.512 7.512 0 0 0 7.512 7.512h200.008a7.511 7.511 0 0 0 7.512-7.512v-6.991h24.45v41.459c0 4.149 3.362 7.512 7.512 7.512s7.512-3.363 7.512-7.512V77.391a7.511 7.511 0 0 0-7.512-7.512h-31.962V58.472h56.663v116.104a68.13 68.13 0 0 0-17.189 15.146v-38.32a7.51 7.51 0 0 0-7.512-7.511zm24.701 197.528a137.2 137.2 0 0 0-17.189 6.22V325.96a68.022 68.022 0 0 0 17.189 15.225v.234zm58.321 107.814l-22.836 20.902-22.837-20.902 14.395-62.488h16.882l14.396 62.488zm-42.246-96.108c.651-.12 1.303-.231 1.955-.341.412-.068.823-.136 1.235-.2.929-.145 1.857-.279 2.789-.403a125.934 125.934 0 0 1 4.382-.497 117.6 117.6 0 0 1 3.832-.297c.305-.019.612-.032.918-.048.876-.045 1.753-.068 2.629-.093.557.014 1.109.042 1.669.042s1.113-.029 1.669-.042c.876.025 1.753.048 2.629.093.305.016.612.029.918.048a117.445 117.445 0 0 1 14.193 1.736l-9.572 18.597h-19.676l-9.57-18.595zm21.441-16.911c-.643-.018-1.284-.042-1.929-.051a7.005 7.005 0 0 0-.205 0c-.645.009-1.286.033-1.929.051a52.152 52.152 0 0 1-21.902-5.742c-.171-.109-.337-.225-.518-.323-12.922-6.858-22.188-18.502-26.06-32.044l-.1-.352c-.139-.5-.272-1.002-.397-1.505-.042-.172-.079-.347-.12-.519a53.402 53.402 0 0 1-.487-2.302c-.069-.371-.138-.741-.199-1.115a51.112 51.112 0 0 1-.398-2.895c-.025-.228-.046-.457-.068-.686a53.61 53.61 0 0 1-.183-2.615 53.386 53.386 0 0 1-.06-2.374v-18.459c33.441-2.122 53.161-17.858 62.932-28.744 6.888 10.727 20.188 25.569 42.115 28.475v18.728c-.001 28.281-22.47 51.399-50.492 52.472z"/><path class="item item-4" d="M241.973 178.357a7.513 7.513 0 0 0-9.16 11.91c22.721 17.472 36.532 43.186 38.608 71.413l-21.74-.01h-.003l-74.055-.033-47.579-74.665-.003-.004-3.308-5.191c14.527-7.918 30.809-12.071 47.519-12.071 14.574 0 28.613 3.079 41.728 9.15a7.51 7.51 0 0 0 9.972-3.661 7.511 7.511 0 0 0-3.661-9.973c-15.106-6.993-31.27-10.54-48.039-10.54-22.12 0-43.593 6.327-62.095 18.296a7.513 7.513 0 0 0-2.256 10.345l3.618 5.676c-25.067 18.982-39.832 48.417-39.832 80.148 0 31.325 14.219 60.311 39.011 79.526a7.508 7.508 0 0 0 10.572-1.378l5.095-6.671c13.67 8.823 29.385 13.459 45.889 13.459 44.279 0 80.744-34.081 84.581-77.385l22.369.01h.003a7.515 7.515 0 0 0 7.514-7.559c-.001-35.831-16.31-68.924-44.748-90.792zM118.816 325.753l-.009.012-4.688 6.138c-17.507-16.172-27.408-38.65-27.408-62.756 0-26.577 12.173-51.268 32.907-67.437l42.727 67.049-43.529 56.994zm53.437 13.307c-13.171 0-25.732-3.58-36.739-10.415l39.702-51.983 56.325.025 10.219.004c-3.776 35.012-33.513 62.369-69.507 62.369z"/></svg>