<svg xmlns="http://www.w3.org/2000/svg" viewBox="0 0 512 512"><path class="item item-5" d="M304.162 127.773h-27.654v-4.621c0-11.451-9.317-20.768-20.768-20.768h-37.751c-11.451 0-20.767 9.317-20.767 20.768v4.621h-27.655a7.515 7.515 0 0 0-7.515 7.515v90.407a7.515 7.515 0 0 0 7.515 7.515h134.595a7.514 7.514 0 0 0 7.515-7.515v-90.407a7.514 7.514 0 0 0-7.515-7.515zm-91.909-4.622a5.744 5.744 0 0 1 5.737-5.738h37.751a5.744 5.744 0 0 1 5.738 5.738v4.621h-49.225v-4.621zm-35.171 19.653h119.565V159.8c0 8.177-6.653 14.831-14.831 14.831h-89.903c-8.177 0-14.831-6.653-14.831-14.831v-16.996zm119.566 75.375H177.083V185.7a29.666 29.666 0 0 0 14.831 3.96h89.903a29.666 29.666 0 0 0 14.831-3.96v32.479z"/><path class="item item-5" d="M455.855 344.108l-16.028-16.028v-80.823c0-4.151-3.364-7.515-7.515-7.515s-7.515 3.364-7.515 7.515v65.793l-38.75-38.75a7.518 7.518 0 0 0-10.629 0l-1.353 1.353-16.43-16.43c39.818-57.285 34.215-136.796-16.812-187.824-27.767-27.768-64.686-43.061-103.957-43.061-39.27 0-76.191 15.293-103.959 43.061-57.323 57.324-57.323 150.594 0 207.917 27.768 27.768 64.689 43.061 103.959 43.061 30.408 0 59.403-9.176 83.835-26.206l16.424 16.424-1.352 1.352a7.515 7.515 0 0 0 0 10.628l69.809 69.809c5.297 5.296 11.973 8.706 19.216 9.914v17.826h-67.332a7.515 7.515 0 0 0-7.515 7.515v67.332H60.781V319.486a7.515 7.515 0 1 0-15.03 0v184.999A7.515 7.515 0 0 0 53.266 512h304.199c.061 0 .12-.008.18-.009.184-.004.369-.009.552-.027.143-.014.285-.04.426-.063.099-.015.2-.025.3-.045.147-.029.291-.07.436-.108.091-.024.184-.042.276-.069.141-.043.28-.097.418-.148.091-.033.183-.061.274-.098.137-.057.271-.124.405-.189.086-.042.175-.078.261-.123.141-.075.277-.161.413-.245.073-.045.148-.084.22-.132.181-.12.356-.252.527-.388.022-.018.047-.033.069-.051.194-.158.382-.328.561-.506l74.846-74.847c.237-.237.45-.493.651-.757a7.305 7.305 0 0 0 .667-1.026c.009-.016.015-.034.024-.051a7.76 7.76 0 0 0 .456-1.079c.103-.306.194-.616.258-.934l.002-.01a7.548 7.548 0 0 0 .131-1.205c.003-.085.012-.168.012-.253v-26.021c6.008-1.581 11.518-4.723 16.028-9.232v-.001c13.856-13.861 13.856-36.414-.003-50.275zM364.98 486.342v-49.189h49.189l-49.189 49.189zm-34.823-217.654a133.644 133.644 0 0 1-13.283 11.625c-.124.095-.236.2-.354.303-22.812 17.338-50.511 26.73-79.657 26.73-35.255 0-68.4-13.73-93.33-38.659-51.462-51.462-51.462-135.198 0-186.66 24.929-24.93 58.075-38.659 93.331-38.659 35.255 0 68.4 13.729 93.329 38.659 47.16 47.159 51.095 121.416 11.821 173.107-.076.09-.158.175-.23.27a133.88 133.88 0 0 1-11.626 13.283l-.001.001zm2.513 18.196a148.885 148.885 0 0 0 15.683-15.686l15.082 15.082-15.685 15.685-15.08-15.081zm112.557 96.869c-3.875 3.876-9.028 6.01-14.508 6.01s-10.632-2.134-14.507-6.01l-64.495-64.494 1.343-1.343.01-.009 26.313-26.313.009-.01 1.343-1.344 46.26 46.26.01.01 18.224 18.224c7.997 8.003 7.997 21.02-.002 29.019z"/><path class="item item-5" d="M305.357 259.237a7.514 7.514 0 0 0-10.47-1.825c-17.042 11.984-37.106 18.318-58.022 18.318-55.692 0-101.001-45.309-101.001-101.002 0-26.786 10.378-52.021 29.222-71.055a7.514 7.514 0 0 0-.054-10.627 7.514 7.514 0 0 0-10.627.054c-21.648 21.867-33.571 50.858-33.571 81.63 0 63.98 52.051 116.032 116.031 116.032 24.026 0 47.08-7.281 66.669-21.054a7.516 7.516 0 0 0 1.823-10.471zm-68.492-200.54c-21.558 0-42.605 5.957-60.864 17.227a7.515 7.515 0 1 0 7.894 12.789c15.885-9.804 34.202-14.986 52.97-14.986 55.692 0 101.002 45.309 101.002 101.001 0 25.223-9.347 49.372-26.319 68a7.514 7.514 0 0 0 .494 10.616 7.481 7.481 0 0 0 5.059 1.961c2.04 0 4.074-.826 5.557-2.454 19.499-21.402 30.239-49.147 30.239-78.123 0-63.98-52.051-116.031-116.032-116.031z"/><path class="item item-5" d="M432.311 0H53.266a7.515 7.515 0 0 0-7.515 7.515v286.92a7.516 7.516 0 0 0 15.03 0V15.03h364.015v207.177c0 4.151 3.364 7.515 7.515 7.515s7.515-3.364 7.515-7.515V7.515A7.513 7.513 0 0 0 432.311 0zM330.618 384.206H143.11a7.515 7.515 0 1 0 0 15.03h187.508a7.514 7.514 0 0 0 7.515-7.515 7.514 7.514 0 0 0-7.515-7.515zm0-35.373H143.11a7.515 7.515 0 1 0 0 15.03h187.508c4.151 0 7.515-3.364 7.515-7.515s-3.363-7.515-7.515-7.515zm-58.225 70.745H143.11a7.515 7.515 0 1 0 0 15.03h129.283a7.514 7.514 0 0 0 7.515-7.515 7.514 7.514 0 0 0-7.515-7.515z"/></svg>