<svg xmlns="http://www.w3.org/2000/svg" viewBox="0 0 512 512"><path class="item item-3" d="M99.241 154.184c29.804 0 54.049-24.253 54.052-54.057 0-29.804-24.246-54.054-54.052-54.054-29.804 0-54.054 24.251-54.054 54.054 0 29.806 24.25 54.057 54.054 54.057zm0-89.754c19.681 0 35.694 16.013 35.694 35.697s-16.013 35.697-35.694 35.697-35.697-16.01-35.697-35.697S79.56 64.43 99.241 64.43zm-9.18 319.311h18.358v125.053H90.061z"/><path class="item item-3" d="M320.632 173.709H58.445c-15.619 0-30.295 6.08-41.329 17.121C6.08 201.874 0 216.55 0 232.154v122.872h40.796v153.772h18.358V307.94H40.796v28.726H18.358V232.154c0-10.701 4.17-20.769 11.745-28.344 7.562-7.572 17.628-11.74 28.342-11.74h243.832v22.438H139.325v294.285h18.358v-275.93h162.949v-59.154z"/><path class="item item-3" d="M512 97.293H385.016l-94.095-94.09-94.083 94.09h-6.118v18.36h302.922v20.17H190.72v18.36h283.656v232.064H190.72v18.358h91.034v39.905c-13.353 3.962-23.127 16.341-23.127 30.963 0 17.81 14.49 32.299 32.294 32.299 17.807 0 32.302-14.492 32.302-32.299 0-14.615-9.766-26.988-23.112-30.957v-39.911h192.625V154.184H512V97.293zM290.921 29.164l68.135 68.129h-136.26l68.125-68.129zm13.942 446.307c0 7.685-6.254 13.939-13.942 13.939-7.683 0-13.937-6.254-13.937-13.939s6.254-13.939 13.937-13.939c7.688 0 13.942 6.254 13.942 13.939z"/><path class="item item-3" d="M191.741 324.887h18.358v35.697h-18.358zm40.297-35.712h18.358v71.396h-18.358zm40.32 31.104h18.358v40.287h-18.358zm40.295-45.978h18.358v86.282h-18.358zm40.32 25.6h18.358v60.685h-18.358zm40.294-45.9h18.358v106.581h-18.358zm40.32 17.331h18.358v89.242h-18.358zm-82.125-97.621h20.408v18.358h-20.408zm40.807 0h20.39v18.358h-20.39zm40.781 0h20.398v18.358H433.05zM351.462 214.5h101.99v18.358h-101.99z"/></svg>