<svg xmlns="http://www.w3.org/2000/svg" viewBox="0 0 512 512"><circle cx="279.156" cy="348.002" r="10.694"/><path class="item item-8" d="M423.405 48.798c-4.152 0-7.518 3.365-7.518 7.518s3.366 7.518 7.518 7.518c23.852 0 43.257 19.405 43.257 43.257 0 23.852-19.405 43.257-43.257 43.257s-43.257-19.405-43.257-43.257c0-16.542 9.642-31.859 24.564-39.022a7.519 7.519 0 0 0-6.507-13.557c-20.104 9.65-33.094 30.289-33.094 52.578 0 32.143 26.15 58.293 58.293 58.293s58.293-26.15 58.293-58.293c.001-32.142-26.15-58.292-58.292-58.292z"/><path class="item item-8" d="M423.405 18.494c-40.316 0-75.363 27.274-85.6 65.693h-13.403v-6.613c0-13.89-11.3-25.19-25.19-25.19-3.78 0-7.366.842-10.587 2.341-2.178-11.687-12.447-20.566-24.757-20.566a25.035 25.035 0 0 0-13.736 4.091c-4.408-7.337-12.443-12.259-21.607-12.259-9.165 0-17.2 4.921-21.607 12.259a25.035 25.035 0 0 0-13.736-4.091c-13.89 0-25.19 11.299-25.19 25.19v14.449c-7.031-5.814-16.044-9.312-25.859-9.312a7.517 7.517 0 0 0-7.518 7.518v12.181H7.518A7.519 7.519 0 0 0 0 91.704v30.769a7.517 7.517 0 0 0 7.518 7.518h20.131v20.036a7.517 7.517 0 0 0 7.518 7.518h25.102a7.517 7.517 0 0 0 7.518-7.518v-20.034h5.589v20.035a7.517 7.517 0 0 0 7.518 7.518h25.101a7.517 7.517 0 0 0 7.518-7.518v-20.035h21.101v50.803c0 14.431 6.081 28.324 16.683 38.113l9.368 8.652v25.075h-4.568a7.517 7.517 0 0 0-7.518 7.518v44.668h-6.447a7.517 7.517 0 0 0-7.518 7.518v42.115c0 4.153 3.366 7.518 7.518 7.518s7.518-3.365 7.518-7.518v-34.597h156.509v158.61H149.651v-98.952c0-4.153-3.366-7.518-7.518-7.518s-7.518 3.365-7.518 7.518v106.471a7.517 7.517 0 0 0 7.518 7.518h171.544a7.517 7.517 0 0 0 7.518-7.518V312.34a7.517 7.517 0 0 0-7.518-7.518h-6.446v-44.668a7.517 7.517 0 0 0-7.518-7.518h-2.348v-25.704l11.508-14.215c9.925-12.26 15.391-27.698 15.391-43.472v-39.25h13.54c10.237 38.419 45.285 65.693 85.6 65.693 48.851 0 88.595-39.743 88.595-88.596s-39.743-88.598-88.594-88.598zm-288.79 96.464h-28.62a7.517 7.517 0 0 0-7.518 7.518v20.035H88.412v-20.035a7.517 7.517 0 0 0-7.518-7.518H60.269a7.517 7.517 0 0 0-7.518 7.518v20.035H42.685v-20.035a7.517 7.517 0 0 0-7.518-7.518H15.036V99.225h119.578v15.733zM253.714 59.35c.001-5.599 4.556-10.154 10.154-10.154 5.599 0 10.154 4.555 10.154 10.154v66.206c0 5.599-4.555 10.154-10.154 10.154s-10.154-4.555-10.154-10.154V59.35zm-35.343 0v-8.167c0-5.599 4.555-10.154 10.154-10.154s10.154 4.555 10.154 10.154v74.373c0 5.599-4.555 10.154-10.154 10.154s-10.154-4.555-10.154-10.154V59.35zm-7.518 84.136c.165.163.335.323.504.481l-.702-.294c.067-.062.133-.123.198-.187zM183.028 59.35c0-5.599 4.555-10.154 10.154-10.154s10.154 4.555 10.154 10.154v66.206c0 5.599-4.555 10.154-10.154 10.154s-10.154-4.555-10.154-10.154V59.35zm109.166 245.472H163.615v-37.15h128.579v37.15zm17.033-135.576a54.218 54.218 0 0 1-12.041 34.01l-13.183 16.284a7.514 7.514 0 0 0-1.675 4.73v28.366H175.701V224.27c0-2.098-.876-4.1-2.418-5.523l-11.786-10.883a36.949 36.949 0 0 1-11.848-27.067l.001-100.146c10.461 3.22 18.086 12.975 18.086 24.478v36.828a7.519 7.519 0 0 0 6.707 7.474c.655.071 65.521 7.605 65.521 50.783 0 4.153 3.366 7.518 7.518 7.518s7.518-3.365 7.518-7.518c0-20.723-10.644-37.797-30.923-49.868a25.16 25.16 0 0 0 4.446.401c6.88 0 13.121-2.775 17.672-7.261 4.551 4.486 10.792 7.261 17.672 7.261s13.121-2.775 17.672-7.261c4.551 4.486 10.792 7.261 17.672 7.261a25.03 25.03 0 0 0 10.016-2.083v20.582zm.138-78.952a7.553 7.553 0 0 0-.137 1.412v30.769c0 .483.05.954.137 1.412v1.668c0 5.599-4.555 10.154-10.154 10.154s-10.154-4.555-10.154-10.154v-47.98c0-5.599 4.555-10.154 10.154-10.154s10.154 4.555 10.154 10.154v12.719zm114.04 90.357c-35.219 0-65.597-25.063-72.231-59.593a7.517 7.517 0 0 0-7.383-6.1h-19.39V99.225h19.39a7.517 7.517 0 0 0 7.383-6.1c6.634-34.531 37.011-59.593 72.231-59.593 40.56 0 73.559 32.999 73.559 73.56s-32.999 73.559-73.559 73.559z"/></svg>