<svg xmlns="http://www.w3.org/2000/svg" viewBox="0 0 496 496"><path d="M472 416V176c0-22.056-17.944-40-40-40h-24V0H88v136H64c-22.056 0-40 17.944-40 40v240H0v40c0 22.056 17.944 40 40 40h416c22.056 0 40-17.944 40-40v-40h-24zm-64-264h24c13.232 0 24 10.768 24 24v240h-16V184c0-8.824-7.176-16-16-16h-16v-16zM104 16h288v48H104V16zm304 272v-72h-16v56H104V80h288v120h16v-16h16v232H72V184h16v104h320zM288 432v8c0 4.416-3.592 8-8 8h-64c-4.408 0-8-3.584-8-8v-8h80zM40 176c0-13.232 10.768-24 24-24h24v16H72c-8.824 0-16 7.176-16 16v232H40V176zm440 280c0 13.232-10.768 24-24 24H40c-13.232 0-24-10.768-24-24v-24h176v8c0 13.232 10.768 24 24 24h64c13.232 0 24-10.768 24-24v-8h176v24z"/><path d="M120 32h16v16h-16zm32 0h16v16h-16zm32 0h16v16h-16zm-64 224h120V96H120v160zm16-144h88v128h-88V112zm120 144h120V96H256v160zm16-144h88v128h-88V112z"/><path d="M160 216l53.336-40L160 136v80zm16-48l10.664 8L176 184v-16zm112-32h56v16h-56zm0 32h56v16h-56zm0 32h56v16h-56zM88 400h320v-96H88v96zm16-80h288v64H104v-64z"/><path d="M344 328h-56v16H120v16h168v16h56v-16h32v-16h-32v-16zm-16 32h-24v-16h24v16z"/></svg>