<svg xmlns="http://www.w3.org/2000/svg" viewBox="0 0 512.001 512.001"><path class="item item-7" d="M413.424 340.006c19.542-11.923 32.616-33.445 32.616-57.963v-51.957c0-24.384-12.935-45.796-32.297-57.759-8.358-47.038-32.874-90.039-69.319-121.411C306.659 18.41 258.383.508 208.49.508 93.529.508 0 94.036 0 208.998s93.529 208.49 208.49 208.49c16.297 0 32.406-1.884 48.102-5.595-7.819 16.197-12.213 34.032-12.213 52.579v39.547a7.473 7.473 0 0 0 7.473 7.473h56.693a7.473 7.473 0 0 0 0-14.946h-49.219v-32.074c0-20.711 6.14-40.789 17.626-58.479l.006-.002 1.419-2.09c10.792-15.894 25.636-29.218 42.66-38.654a126.25 126.25 0 0 1 22.629-9.74l12.125 23.559-16.202 70.332a7.471 7.471 0 0 0 2.237 7.19l31.319 28.664c1.428 1.306 3.236 1.96 5.046 1.96s3.617-.654 5.046-1.96l31.319-28.664a7.472 7.472 0 0 0 2.237-7.19l-16.202-70.332 12.126-23.559c17.886 5.702 34.652 15.493 48.495 28.647 23.114 21.961 35.844 50.486 35.844 80.319v32.074h-163.6a7.473 7.473 0 0 0 0 14.946h171.072a7.473 7.473 0 0 0 7.473-7.473v-39.547c-.001-57.706-42.493-108.527-98.577-124.467zm-8.644-155.629c15.72 9.182 26.314 26.227 26.314 45.709v17.801c-24.108-4.473-33.863-28.984-34.296-30.105a7.467 7.467 0 0 0-6.463-4.788 7.52 7.52 0 0 0-7.084 3.853c-.678 1.226-16.264 28.511-57.966 31.482v-18.244c0-.845.025-1.683.064-2.518.013-.27.035-.538.052-.807.035-.569.077-1.136.13-1.7.029-.304.063-.607.097-.91.06-.537.129-1.072.204-1.604.042-.292.084-.584.131-.875.094-.582.198-1.159.311-1.735.044-.224.083-.449.13-.672a52.379 52.379 0 0 1 1.255-4.857l.052-.159c.236-.751.488-1.496.757-2.232l.097-.259c.272-.733.558-1.461.861-2.179l.05-.119a53.217 53.217 0 0 1 17.047-21.726l.08-.06a55.827 55.827 0 0 1 1.808-1.287c.125-.085.248-.171.374-.255a53.1 53.1 0 0 1 1.5-.963c.224-.14.445-.284.672-.419.308-.185.624-.359.936-.538a53.217 53.217 0 0 1 13.599-5.466c.057-.014.11-.035.165-.05a52.786 52.786 0 0 1 12.537-1.514c1.034 0 2.067.037 3.097.098.22.013.438.035.658.05.859.062 1.717.14 2.571.243.161.019.323.041.483.062a52.693 52.693 0 0 1 18.39 5.983l1.387.76zM271.1 388.519a134.46 134.46 0 0 0-3.615 4.861c-19.018 6.08-38.852 9.162-58.994 9.162-106.72.001-193.544-86.823-193.544-193.544S101.77 15.454 208.49 15.454c46.317 0 91.129 16.617 126.184 46.791 31.227 26.88 53.026 62.941 62.3 102.657a67.188 67.188 0 0 0-7.152-1.647 68.633 68.633 0 0 0-2.046-.329c-.4-.058-.802-.103-1.203-.154a66.913 66.913 0 0 0-4.331-.405c-.343-.02-.686-.04-1.03-.055a66.228 66.228 0 0 0-3.024-.077c-3.075 0-6.096.225-9.064.624-9.516-33.099-29.385-62.914-56.489-84.546-29.856-23.828-65.869-36.422-104.147-36.422-45.521 0-88.07 17.977-119.811 50.617a7.474 7.474 0 0 0 10.714 10.42c28.902-29.722 67.647-46.091 109.096-46.091 34.854 0 67.643 11.466 94.823 33.158 24.548 19.591 42.579 46.543 51.299 76.471a67.443 67.443 0 0 0-4.411 1.835c-.217.098-.434.194-.651.295a67.948 67.948 0 0 0-2.983 1.484c-.335.177-.671.351-1.002.533a67.766 67.766 0 0 0-33.761 45.446c-.037.173-.077.345-.112.518a68.104 68.104 0 0 0-.558 3.117c-.021.134-.036.27-.056.404a68.91 68.91 0 0 0-.34 2.663c-.034.319-.064.64-.094.96-.07.752-.128 1.508-.172 2.266-.019.315-.041.63-.055.946a68.837 68.837 0 0 0-.08 3.155v51.956c0 .736.013 1.471.037 2.204.003.088.009.175.012.263.008.209.02.418.029.626.01.224.019.449.031.674.053.954.125 1.905.218 2.853.028.285.062.568.093.853a67.685 67.685 0 0 0 .832 5.468c.091.465.184.93.284 1.392.095.435.198.868.301 1.301.207.874.43 1.742.672 2.603l.18.635a67.45 67.45 0 0 0 5.413 13.253 152.562 152.562 0 0 1-33.047 26.149 7.472 7.472 0 0 0-2.66 10.228 7.472 7.472 0 0 0 10.229 2.662c12.509-7.345 23.952-16.274 34.155-26.567a68.377 68.377 0 0 0 15.838 13.37c-28.865 8.202-54.128 25.64-71.851 48.508zm130.148 59.985l-23.058 21.103-23.057-21.103 14.503-62.954h17.11l14.502 62.954zm-42.703-96.745c.659-.123 1.319-.234 1.98-.345a125.969 125.969 0 0 1 3.868-.588 118.77 118.77 0 0 1 8.536-.833c.298-.018.595-.031.893-.046.898-.047 1.796-.07 2.693-.096.558.014 1.112.043 1.674.043.561 0 1.116-.029 1.674-.043.898.026 1.796.049 2.693.096.298.016.595.028.893.046a116.11 116.11 0 0 1 5.398.455c1.047.112 2.093.238 3.138.378a127.548 127.548 0 0 1 3.869.588c.661.112 1.321.223 1.98.345l-9.7 18.844h-19.888l-9.701-18.844zm21.684-16.863c-.646-.018-1.29-.042-1.938-.051a6.936 6.936 0 0 0-.204 0c-.648.009-1.292.033-1.937.051a52.727 52.727 0 0 1-11.071-1.595l-1.899-.567c-20.153-6.011-34.812-23.602-37.46-44.04l-.047-.367a49.599 49.599 0 0 1-.255-2.748c-.023-.341-.048-.681-.064-1.022-.002-.038-.005-.076-.006-.115a53.01 53.01 0 0 1-.061-2.399v-18.738c33.772-2.08 53.64-17.984 63.443-28.934 6.902 10.778 20.275 25.756 42.366 28.658v19.014c-.002 28.487-22.638 51.775-50.867 52.853z"/><path class="item item-7" d="M271.045 356.094c-1.437-3.868-5.74-5.842-9.607-4.403-16.916 6.281-34.73 9.467-52.948 9.467-83.901 0-152.159-68.258-152.159-152.159 0-30.777 9.139-60.42 26.429-85.728a7.474 7.474 0 0 0-12.342-8.432C51.424 142.64 41.385 175.2 41.385 208.997c0 92.143 74.963 167.106 167.106 167.106 20 0 39.564-3.499 58.151-10.402a7.473 7.473 0 0 0 4.403-9.607z"/><path class="item item-7" d="M215.865 178.483V94.646a7.473 7.473 0 0 0-14.946 0v83.837c-13.674 3.361-23.85 15.72-23.85 30.415a31.156 31.156 0 0 0 6.262 18.768l-39.341 42.823a7.473 7.473 0 0 0 .447 10.559 7.44 7.44 0 0 0 5.054 1.971 7.452 7.452 0 0 0 5.505-2.417l39.905-43.438a31.137 31.137 0 0 0 13.492 3.059c17.272 0 31.324-14.052 31.324-31.324-.002-14.696-10.178-27.055-23.852-30.416zm-7.473 46.794c-9.031 0-16.377-7.347-16.377-16.377 0-9.031 7.347-16.377 16.377-16.377s16.377 7.347 16.377 16.377c0 9.03-7.347 16.377-16.377 16.377z"/></svg>