<svg xmlns="http://www.w3.org/2000/svg" viewBox="0 0 512 512"><path class="item item-1" d="M426.197 431.303a7.498 7.498 0 0 0-7.498 7.498v27.287H93.302V354.634a7.498 7.498 0 0 0-14.996 0v139.869c0 9.647 7.849 17.496 17.496 17.496H416.2c9.647 0 17.496-7.849 17.496-17.496v-55.702a7.5 7.5 0 0 0-7.499-7.498zm-7.499 63.201a2.502 2.502 0 0 1-2.499 2.499H95.801a2.502 2.502 0 0 1-2.499-2.499v-13.419h325.397v13.419zm-4.286-227.171h-28.588c-18.791-36.502-53.671-63.87-93.306-74.857 21.776-12.643 36.462-36.204 36.462-63.146V72.981a72.563 72.563 0 0 0-12.481-40.776C303.372 12.789 281.151 0 256 0c-40.242 0-72.981 32.74-72.981 72.981v56.35c0 26.942 14.686 50.504 36.462 63.146-39.634 10.987-74.515 38.354-93.306 74.857H97.587c-10.632 0-19.282 8.65-19.282 19.282v43.025a7.498 7.498 0 0 0 14.996 0v-43.025a4.29 4.29 0 0 1 4.285-4.285h316.826a4.291 4.291 0 0 1 4.286 4.285v127.191a7.498 7.498 0 0 0 14.996 0V286.615c.001-10.631-8.649-19.282-19.282-19.282zM256.001 14.997c31.972 0 57.984 26.012 57.984 57.984v20.031c-27.014-4.549-37.89-31.916-38.37-33.16a7.499 7.499 0 0 0-6.516-4.825 7.487 7.487 0 0 0-7.095 3.921c-.178.33-17.48 31.394-63.988 34.464V72.981h-.001c.001-31.973 26.013-57.984 57.986-57.984zm-57.985 114.334v-20.889c37.408-2.133 59.088-19.955 69.496-31.813 7.339 11.709 21.961 28.538 46.473 31.544v21.158c0 31.269-24.884 56.822-55.886 57.931-.665-.019-1.331-.049-1.996-.059l-.103-.001-.103.001c-.665.009-1.331.04-1.996.059-31.002-1.11-55.885-26.662-55.885-57.931zm26.764 138.002h-81.467c16.737-28.019 44.289-49.218 75.547-59.065l13.49 26.208-7.57 32.857zm15.389 0l6.07-26.349h19.522l6.07 26.349h-31.662zm26.986-41.345h-22.309l-11.06-21.486a129.403 129.403 0 0 1 9.371-1.456l.129-.015a127.205 127.205 0 0 1 8.868-.708c.63-.028 1.261-.041 1.892-.06.652.017 1.299.049 1.955.049.656 0 1.304-.032 1.955-.049.631.019 1.262.031 1.892.06l.813.039c2.694.139 5.381.36 8.054.669l.132.015c3.143.367 6.267.861 9.369 1.456l-11.061 21.486zm20.065 41.345l-7.569-32.856 13.49-26.209c31.256 9.847 58.809 31.047 75.547 59.065H287.22z"/><path class="item item-2" d="M256 346.502c-17.111 0-31.032 13.921-31.032 31.032s13.921 31.032 31.032 31.032 31.032-13.921 31.032-31.032-13.921-31.032-31.032-31.032zm0 47.068c-8.842 0-16.035-7.194-16.035-16.036 0-8.842 7.193-16.036 16.035-16.036s16.036 7.193 16.036 16.036S264.842 393.57 256 393.57z"/></svg>