<svg xmlns="http://www.w3.org/2000/svg" viewBox="0 0 612 612"><path d="M535.04 0H76.961C35.939 0 2.564 33.375 2.564 74.399V374.89c0 41.023 33.375 74.399 74.399 74.399h250.863v144.555a18.158 18.158 0 0 0 18.15 18.155 18.154 18.154 0 0 0 13.727-6.268l135.52-156.442h39.815c41.023 0 74.398-33.375 74.398-74.399V74.399C609.438 33.375 576.063 0 535.04 0zm38.088 374.891c0 21.001-17.085 38.089-38.088 38.089 0 0-46.972.012-47.248 0a18.14 18.14 0 0 0-14.583 6.268L364.138 545.161V431.137c0-10.026-8.129-18.155-18.155-18.155H76.961c-21.002 0-38.089-17.088-38.089-38.089V74.399c.002-21.001 17.087-38.089 38.089-38.089h458.077c21.002 0 38.088 17.088 38.088 38.089V374.89h.002z"/><path d="M509.29 119.751H102.713c-10.026 0-18.155 8.129-18.155 18.155s8.129 18.155 18.155 18.155H509.29c10.026 0 18.155-8.129 18.155-18.155s-8.127-18.155-18.155-18.155zm0 86.738H102.713c-10.026 0-18.155 8.129-18.155 18.155 0 10.026 8.129 18.155 18.155 18.155H509.29c10.026 0 18.155-8.129 18.155-18.155 0-10.026-8.127-18.155-18.155-18.155zm-214.131 86.736H102.713c-10.026 0-18.155 8.129-18.155 18.155s8.129 18.155 18.155 18.155h192.448c10.026 0 18.155-8.129 18.155-18.155-.002-10.025-8.129-18.155-18.157-18.155z"/></svg>