<svg xmlns="http://www.w3.org/2000/svg" fill="#345bb7" viewBox="0 0 512 512"><path d="M358.038 97.016l-94.709-82.425c-4.178-3.636-10.48-3.636-14.658 0l-93.168 81.083V84.597h1.979c6.286 0 11.4-5.114 11.4-11.4v-21.44c0-6.286-5.114-11.4-11.4-11.4h-85.59c-6.286 0-11.4 5.114-11.4 11.4v21.44c0 6.286 5.114 11.4 11.4 11.4h4.553v79.88L3.878 227.633c-3.574 3.109-4.811 7.986-3.151 12.423 1.66 4.437 5.794 7.304 10.532 7.304h49.199v77.934a7.286 7.286 0 1 0 14.572 0v-85.22a7.286 7.286 0 0 0-7.286-7.286H20.152l68.363-59.495a7.287 7.287 0 0 0 2.503-5.497V84.597h49.913v27.076a7.286 7.286 0 0 0 12.07 5.496L256 27.531l92.471 80.478a7.285 7.285 0 0 0 10.28-.713 7.286 7.286 0 0 0-.713-10.28zM154.31 70.026H75.064V54.93h79.246v15.096zm353.813 157.607l-123.92-107.847a7.288 7.288 0 0 0-9.568 10.993l117.212 102.009h-47.593a7.285 7.285 0 0 0-7.286 7.286v241.674a3.82 3.82 0 0 1-3.817 3.817H78.848a3.822 3.822 0 0 1-3.817-3.817V359.944a7.286 7.286 0 1 0-14.572 0v121.803c0 10.14 8.249 18.389 18.389 18.389h354.304c10.14 0 18.389-8.249 18.389-18.389V247.36h49.199c4.738 0 8.872-2.867 10.532-7.304 1.661-4.438.424-9.315-3.149-12.423z"/><path d="M334.445 280.519a8.755 8.755 0 0 0-8.085-5.433l-81.763-.299 64.931-104.816c1.679-2.711 1.767-6.109.23-8.869a8.84 8.84 0 0 0-7.71-4.549c-2.325 0-4.525.92-6.191 2.588L148.412 306.584a8.753 8.753 0 0 0-1.903 9.568c1.375 3.318 4.614 5.496 8.212 5.419l80.444-.92-69.613 111.898c-1.684 2.711-1.777 6.112-.241 8.876a8.84 8.84 0 0 0 7.715 4.556c2.323 0 4.523-.919 6.191-2.588l153.321-153.321a8.755 8.755 0 0 0 1.907-9.553zM204.549 397.453l48.574-78.08a8.787 8.787 0 0 0 .217-8.901 8.784 8.784 0 0 0-7.673-4.514h-.102l-76.797.878 102.051-102.05-44.065 71.133a8.786 8.786 0 0 0-.214 8.88 8.79 8.79 0 0 0 7.647 4.522l78.207.286-107.845 107.846z"/></svg>