<svg xmlns="http://www.w3.org/2000/svg" fill="#345bb7" viewBox="0 0 512 512"><path d="M396 236c-5.52 0-10 4.48-10 10s4.48 10 10 10 10-4.48 10-10-4.48-10-10-10zm-280 0c-5.52 0-10 4.48-10 10s4.48 10 10 10 10-4.48 10-10-4.48-10-10-10zm230 40h-50v-50c0-5.522-4.478-10-10-10h-60c-5.522 0-10 4.478-10 10v50h-50c-5.522 0-10 4.478-10 10v60c0 5.522 4.478 10 10 10h50v50c0 5.522 4.478 10 10 10h60c5.522 0 10-4.478 10-10v-50h50c5.522 0 10-4.478 10-10v-60c0-5.522-4.478-10-10-10zm-10 60h-50c-5.522 0-10 4.478-10 10v50h-40v-50c0-5.522-4.478-10-10-10h-50v-40h50c5.522 0 10-4.478 10-10v-50h40v50c0 5.522 4.478 10 10 10h50v40z"/><path d="M462 136h-76V76c0-33.084-26.916-60-60-60H186c-33.084 0-60 26.916-60 60v60H50c-27.57 0-50 22.43-50 50v260c0 27.57 22.43 50 50 50h412c27.57 0 50-22.43 50-50V186c0-27.57-22.43-50-50-50zM146 76c0-22.056 17.944-40 40-40h140c22.056 0 40 17.944 40 40v60h-20V86c0-16.542-13.458-30-30-30H196c-16.542 0-30 13.458-30 30v50h-20V76zm180 10v50H186V86c0-5.514 4.486-10 10-10h120c5.514 0 10 4.486 10 10zM66 476H50c-16.542 0-30-13.458-30-30V186c0-16.542 13.458-30 30-30h16v320zm360 0h-20V286c0-5.522-4.478-10-10-10s-10 4.478-10 10v190H126V286c0-5.522-4.478-10-10-10s-10 4.478-10 10v190H86V156h20v50c0 5.522 4.478 10 10 10s10-4.478 10-10v-50h260v50c0 5.522 4.478 10 10 10s10-4.478 10-10v-50h20v320zm66-30c0 16.542-13.458 30-30 30h-16V156h16c16.542 0 30 13.458 30 30v260z"/></svg>