<svg xmlns="http://www.w3.org/2000/svg" viewBox="0 0 512 512"><path d="M501.333 245.325H10.667C4.779 245.325 0 250.104 0 255.992s4.779 10.667 10.667 10.667h490.667c5.888 0 10.667-4.779 10.667-10.667s-4.78-10.667-10.668-10.667z"/><path d="M508.864 248.461L338.197 77.795c-4.16-4.16-10.923-4.16-15.083 0s-4.16 10.923 0 15.083l170.667 170.667a10.716 10.716 0 0 0 7.552 3.115c2.731 0 5.461-1.045 7.531-3.115 4.16-4.161 4.16-10.924 0-15.084z"/><path d="M508.864 248.461c-4.16-4.16-10.923-4.16-15.083 0L323.115 419.128c-4.16 4.16-4.16 10.923 0 15.083a10.716 10.716 0 0 0 7.552 3.115c2.731 0 5.461-1.045 7.531-3.115l170.667-170.667c4.159-4.16 4.159-10.923-.001-15.083z"/></svg>