<svg xmlns="http://www.w3.org/2000/svg" viewBox="0 0 512.005 512.005" fill="#FFF"><path d="M501.339 245.328H10.672c-5.888 0-10.667 4.779-10.667 10.667s4.779 10.667 10.667 10.667h490.667c5.888 0 10.667-4.779 10.667-10.667s-4.779-10.667-10.667-10.667z"/><path d="M188.869 419.131L18.203 248.464c-4.16-4.16-10.923-4.16-15.083 0s-4.16 10.923 0 15.083l170.667 170.667a10.716 10.716 0 0 0 7.552 3.115c2.731 0 5.461-1.045 7.531-3.115 4.159-4.161 4.159-10.923-.001-15.083z"/><path d="M188.869 77.797c-4.16-4.16-10.923-4.16-15.083 0L3.12 248.464c-4.16 4.16-4.16 10.923 0 15.083a10.716 10.716 0 0 0 7.552 3.115c2.731 0 5.461-1.045 7.531-3.115L188.869 92.88c4.16-4.16 4.16-10.923 0-15.083z"/></svg>