<svg id="Capa_1" xmlns="http://www.w3.org/2000/svg" width="56" height="56" viewBox="0 0 56 56"><style>.st0{fill:#084aa3}</style><path class="st0" d="M35.1 25.5L41.4 7l12.9 37.1H31.4s5-5 5-6.8.5-6.9-.4-9.4-.9-2.4-.9-2.4zM2.2 7.8l2.3-3.4 3.9-2.5 4.1-.6 2.8 1.6s1.3 2 1.3 2.2.2 1.9.2 1.9l2.4.8.4 1.8s-.4 1.8-.4 1.9-1.7.8-2 .8-5.4.3-5.4.3-6-.6-6.1-.6-2.1-.3-2.1-.3l-2-2.2.6-1.7z"/><path d="M55.1 43.7L42.4 6.2c-.1-.4-.5-.7-.9-.7s-.8.3-.9.7l-6 17.8c-2.6-3-6.4-5-10.7-5-7.7 0-14 6.3-14 14 0 7.4 5.7 13.4 13 13.9V55c0 .6.4 1 1 1s1-.4 1-1v-8.1c2.2-.2 4.3-.9 6.2-1.9h9.8v10c0 .6.4 1 1 1s1-.4 1-1V45h11.3c.3 0 .6-.2.8-.4.1-.3.2-.6.1-.9zm-30.3-2.3l2.7-2.7c.4-.4.4-1 0-1.4s-1-.4-1.4 0l-2.3 2.3-2.3-2.3c-.4-.4-1-.4-1.4 0s-.4 1 0 1.4l2.7 2.7v3.5c-6.1-.5-11-5.7-11-11.9 0-6.6 5.4-12 12-12 4.4 0 8.2 2.3 10.3 5.8.4.6.7 1.2.9 1.9 0 .1.1.2.1.4.1.2.1.4.2.6.1.2.1.5.2.7 0 .2.1.3.1.5s.1.5.1.7v.3c0 .4.1.7.1 1.1 0 .5 0 .9-.1 1.4 0 .1 0 .3-.1.4 0 .3-.1.6-.2.9 0 .2-.1.3-.1.5l-.3.9c-.1.2-.1.3-.2.5-.2.4-.3.8-.6 1.2-.1.1-.1.2-.2.3-.2.3-.3.5-.5.8-.1.1-.2.3-.3.4-.2.3-.4.5-.6.7l-.3.3c-.7.7-1.4 1.3-2.2 1.8-1.6 1-3.4 1.7-5.4 1.8l.1-3.5zm18 1.6v-1.6l2.7-2.7c.4-.4.4-1 0-1.4s-1-.4-1.4 0l-2.3 2.3-2.3-2.3c-.4-.4-1-.4-1.4 0s-.4 1 0 1.4l2.7 2.7V43h-7.2c.2-.2.3-.4.5-.5l.5-.5.2-.2c1.6-2 2.7-4.5 3-7.2v-.1c0-.5.1-.9.1-1.4 0-.4 0-.8-.1-1.2v-.3c0-.4-.1-.8-.2-1.1 0-.1-.1-.3-.1-.4-.1-.2-.1-.5-.2-.7-.1-.2-.1-.4-.2-.5-.1-.2-.1-.4-.2-.6-.1-.3-.2-.6-.4-.9-.1-.1-.1-.3-.2-.4l-.3-.6v-.1l5.5-16.4L52.8 43h-10zm-22-33.4c0-1.9-1.3-3.5-3-3.8-.4-4.3-3.4-5.8-6.2-5.8C7.8 0 5.8 2.3 5 3.3 2.7 3.6.8 5.8.8 8.4c0 2.8 2.1 5.1 4.8 5.1h11.6c2 0 3.6-1.7 3.6-3.9zm-18-1.2c0-1.7 1.2-3.1 2.8-3.1.4 0 .7-.2.9-.5C6.5 4.6 8 2 11.6 2c1.6 0 4.2.6 4.2 4.8 0 .6.4 1 1 1h.4c.9 0 1.6.8 1.6 1.9s-.7 1.9-1.6 1.9H5.6c-1.5-.1-2.8-1.5-2.8-3.2z"/></svg>