<svg id="Layer_1" xmlns="http://www.w3.org/2000/svg" width="512" height="512" viewBox="0 0 512 512"><style>.st0{fill:#084aa3}</style><path class="st0" d="M50.3 404.3l4.7 45.4h398l10-22.7-2.7-22.7zM148 143.5V270h216.5V139z"/><path d="M374.5 152.6c0-14.5-11.1-25.6-25.6-25.6H161.1c-14.5 0-25.6 11.1-25.6 25.6V255c0 14.5 11.1 25.6 25.6 25.6h187.7c14.5 0 25.6-11.1 25.6-25.6l.1-102.4zM357.4 255c0 5.1-3.4 8.5-8.5 8.5h-56.3l28.2-28.2c3.4-3.4 3.4-8.5 0-11.9s-8.5-3.4-11.9 0l-40.1 40.1h-52.9l28.2-28.2c3.4-3.4 3.4-8.5 0-11.9s-8.5-3.4-11.9 0l-40.1 40.1h-30.7c-5.1 0-8.5-3.4-8.5-8.5V152.6c0-5.1 3.4-8.5 8.5-8.5h187.7c5.1 0 8.5 3.4 8.5 8.5l-.2 102.4z" transform="translate(1 1)"/><path d="M495.6 144.9H476c-8.5 0-15.4 6.8-15.4 15.4v17.9h-9.4V24.6c0-14.5-11.1-25.6-25.6-25.6H84.3C69.8-1 58.7 10.1 58.7 24.6v153.6h-9.4v-17.9c0-8.5-6.8-15.4-15.4-15.4H14.4c-8.5 0-15.4 6.8-15.4 15.4V214c0 8.5 6.8 15.4 15.4 15.4h20.5c8.5 0 15.4-6.8 14.5-15.4v-18.8h9.4v93.9h-8.5c-5.1 0-8.5 3.4-8.5 8.5v136.5c0 14.5 11.1 25.6 25.6 25.6h8.5v17.1c0 18.8 15.4 34.1 34.1 34.1h34.1c18.8 0 34.1-15.4 34.1-34.1v-17.1h153.6v17.1c0 18.8 15.4 34.1 34.1 34.1H400c18.8 0 34.1-15.4 34.1-34.1v-17.1h8.5c14.5 0 25.6-11.1 25.6-25.6V297.7c0-5.1-3.4-8.5-8.5-8.5h-8.5v-93.9h9.4V214c0 8.5 6.8 15.4 15.4 15.4h19.6c8.5 0 15.4-6.8 15.4-15.4v-53.8c0-8.5-6.8-15.3-15.4-15.3zM33.1 212.3h-17v-51.2h17.1l-.1 51.2zm128 264.6c0 9.4-7.7 17.1-17.1 17.1h-34.1c-9.4 0-17.1-7.7-17.1-17.1v-17.1h68.3v17.1zm256 0c0 9.4-7.7 17.1-17.1 17.1h-34.1c-9.4 0-17.1-7.7-17.1-17.1v-17.1h68.3v17.1zm34.2-42.7c0 5.1-3.4 8.5-8.5 8.5H67.3c-5.1 0-8.5-3.4-8.5-8.5v-24.7h392.5v24.7zm0-42.7H58.7v-85.3h51.2V116.8c0-8.5 6.8-15.4 15.4-15.4h259.4c8.5 0 15.4 6.8 15.4 15.4v189.4h51.2v85.3zm-34.2-102.4V116.8c0-17.9-14.5-32.4-32.4-32.4h-44.4V58.7c0-5.1-3.4-8.5-8.5-8.5s-8.5 3.4-8.5 8.5v25.6h-25.6V58.7c0-5.1-3.4-8.5-8.5-8.5s-8.5 3.4-8.5 8.5v25.6H255V58.7c0-5.1-3.4-8.5-8.5-8.5s-8.5 3.4-8.5 8.5v25.6h-25.6V58.7c0-5.1-3.4-8.5-8.5-8.5s-8.5 3.4-8.5 8.5v25.6h-25.6V58.7c0-5.1-3.4-8.5-8.5-8.5s-8.5 3.4-8.5 8.5v25.6h-27.3c-17.9 0-32.4 14.5-32.4 32.4v172.4H75.8V24.6c0-5.1 3.4-8.5 8.5-8.5h341.3c5.1 0 8.5 3.4 8.5 8.5v264.5h-17zm76.8-76.8h-17.1v-51.2h17.1v51.2z" transform="translate(1 1)"/><path d="M289.1 331.8c5.1 0 8.5-3.4 8.5-8.5s-3.4-8.5-8.5-8.5h-68.3c-5.1 0-8.5 3.4-8.5 8.5s3.4 8.5 8.5 8.5h68.3zm25.6 17.1H195.3c-5.1 0-8.5 3.4-8.5 8.5s3.4 8.5 8.5 8.5h119.5c5.1 0 8.5-3.4 8.5-8.5s-3.4-8.5-8.6-8.5zm-204.8-25.6c-14.5 0-25.6 11.1-25.6 25.6s11.1 25.6 25.6 25.6 25.6-11.1 25.6-25.6-11.1-25.6-25.6-25.6zm0 34.1c-5.1 0-8.5-3.4-8.5-8.5s3.4-8.5 8.5-8.5 8.5 3.4 8.5 8.5-3.3 8.5-8.5 8.5zm264.6-8.5c0 14.5 11.1 25.6 25.6 25.6s25.6-11.1 25.6-25.6-11.1-25.6-25.6-25.6-25.6 11.1-25.6 25.6zm34.1 0c0 5.1-3.4 8.5-8.5 8.5s-8.5-3.4-8.5-8.5 3.4-8.5 8.5-8.5c5.1-.1 8.5 3.3 8.5 8.5z" transform="translate(1 1)"/></svg>