<svg id="Capa_1" xmlns="http://www.w3.org/2000/svg" width="512" height="512" viewBox="0 0 512 512"><style>.st0{fill:#084aa3}</style><path class="st0" d="M85 327s.5 44 7 47 364 2 373 0 11.5-28 11.5-36-4-17-6-17S85 327 85 327zM343 6.7h151.7V41H343z"/><path d="M503.5 35.2V18.1c0-9.4-7.6-17.1-17.1-17.1H349.9c-9.4 0-17.1 7.6-17.1 17.1v17.1c0 9.4 7.6 17.1 17.1 17.1h24.3l-16.3 118.1v.1l-15.5 112.2h-60.8v-93.9c0-9.4-7.6-17.1-17.1-17.1h-30.9L76.4 31C74.5 15.1 61.7 2.7 45.8 1.2 29.8-.4 15 9.5 10.2 24.7s1.6 31.8 15.5 39.8v439.9c0 4.7 3.8 8.5 8.5 8.5s8.5-3.8 8.5-8.5V79.6l52.5 70.8c.1.3.2.6.4.8.2.2.5.3.7.5l14.8 19.9h-.1c-9.4 0-17.1 7.6-17.1 17.1v93.9H76.8c-9.4 0-17.1 7.6-17.1 17.1v17.1c0 9.4 7.6 17.1 17.1 17.1v25.6c-.3 13.8 10.5 25.2 24.2 25.6h9.9v102.4c0 14.1 11.5 25.6 25.6 25.6h17.1c14.1 0 25.6-11.5 25.6-25.6V385h68.3v102.4c0 14.1 11.5 25.6 25.6 25.6h17.1c14.1 0 25.6-11.5 25.6-25.6V385H384v102.4c0 14.1 11.5 25.6 25.6 25.6h17.1c14.1 0 25.6-11.5 25.6-25.6V385h9.9c13.7-.4 24.6-11.8 24.2-25.6v-25.6c9.4 0 17.1-7.6 17.1-17.1v-17.1c0-6.4-3.6-12.3-9.4-15.1l-15.7-114.1v-.1L462.1 52.2h24.3c9.4 0 17.1-7.6 17.1-17zm-477.9 0c0-9.4 7.6-17.1 17.1-17.1 9.4 0 17.1 7.6 17.1 17.1s-7.6 17.1-17.1 17.1-17.1-7.7-17.1-17.1zm29 31.8c7.9-3 14.4-8.8 18.3-16.3l30.3 27.1H62.6l-8-10.8zM99 126.9l-23.8-32h32.9l-9.1 32zm274 58.9l28.8 17.6-34.1 20.9 5.3-38.5zm23.6-5.6h43l-21.5 13.2-21.5-13.2zm51 51.2h-58.9l29.4-18 29.5 18zm-54.9-68.2l25.5-18.5 25.5 18.5h-51zm40-29l21.3-15.5 4.7 34.3-26-18.8zm1.5-22.2l-16.1 11.7-16-11.7h32.1zm-7.5-17.1V52.2h18.2l5.9 42.7h-24.1zm-17.1 0h-24.1l5.9-42.7h18.2v42.7zm-6 39.3l-26.1 18.9 4.7-34.4 21.4 15.5zm-39.2 114.3h45.2v34.1h-49.9l4.7-34.1zm-175.6-94.1l19.3 17.3h-75.8l-12.7-17.1h68.1c.4 0 .7-.1 1.1-.2zm-63.6-56.9l44.8 40h-56.2l11.4-40zM111 188.8h153.6v93.9H111v-93.9zm51.2 298.6c0 4.7-3.8 8.5-8.5 8.5h-17.1c-4.7 0-8.5-3.8-8.5-8.5V385h34.1v102.4zm136.5 0c0 4.7-3.8 8.5-8.5 8.5h-17.1c-4.7 0-8.5-3.8-8.5-8.5V385h34.1v102.4zm136.5 0c0 4.7-3.8 8.5-8.5 8.5h-17.1c-4.7 0-8.5-3.8-8.5-8.5V385h34.1v102.4zm27-119.4H101.1c-4.3-.4-7.5-4.2-7.2-8.5v-25.6h375.5v25.6c.3 4.3-2.9 8.1-7.2 8.5zm24.2-68.3v17.1H76.8v-17.1h409.6zm-9.8-17.1h-49.9v-34.1h45.2l4.7 34.1zm-13.3-96.8l5.3 38.5-34.1-20.9 28.8-17.6zm-78-150.6h-35.4V18.1h136.5v17.1H385.3z" transform="translate(0 -1)"/><path d="M230.4 205.8h-85.3c-9.4 0-17.1 7.6-17.1 17.1v25.6c0 9.4 7.6 17.1 17.1 17.1h85.3c9.4 0 17.1-7.6 17.1-17.1v-25.6c0-9.4-7.7-17.1-17.1-17.1zm-68.2 42.7h-17.1v-25.6h17.1v25.6zm34.1 0h-17.1v-25.6h17.1v25.6zm17.1 0v-25.6h17.1v25.6h-17.1z" transform="translate(0 -1)"/></svg>