<svg id="Layer_1" xmlns="http://www.w3.org/2000/svg" width="512.4" height="512.4" viewBox="0 0 512.4 512.4"><style>.st0{fill:#084aa3}</style><path class="st0" d="M12.3 409v46H503v-50zm0-169.3s12.7 22 12.7 36S12.3 319 12.3 319h265.3s17.3-20 21.3-32-6-26-12-35.3-28.7-14.7-56.7-15.3c-27.9-.7-217.9 3.3-217.9 3.3z"/><path d="M502.9 396.9H448l19.1-5.1c1.7-.9 4.3-1.7 5.1-4.3s1.7-4.3.9-6.8l-12.7-47c.1-.8 0-1.7-.1-2.5l-8.5-33.3c-.4-.8-1-1.8-1.7-2.7l-42.7-158.5c.2-1.2.3-2.4 0-3.5l-8.5-33.3c-.5-1.1-1.4-2.4-2.4-3.5l-12.2-45.1c-.9-4.3-6-6.8-10.2-6l-82.8 22.2c-4.3.9-6.8 6-6 10.2l18.4 68.5c-6.8-3.4-14.5-5.3-22.7-5.3H33.6c-3.4 0-6 1.7-7.7 5.1-1.7 2.6-1.7 6 0 8.5l10.2 16.2c7.7 13.7 7.7 29.9 0 43.5l-7.5 11.9H8c-3.4 0-6 1.7-7.7 5.1-1.7 2.6-1.7 6 0 8.5l10.2 16.2c7.7 13.7 7.7 29.9 0 43.5L.3 315.9c-1.7 2.6-1.7 6 0 8.5s4.3 4.3 7.7 4.3h20l8.1 12.8c7.7 13.7 7.7 29.9 0 43.5l-7.5 11.9H8c-5.1 0-8.5 3.4-8.5 8.5v51.2c0 5.1 3.4 8.5 8.5 8.5h494.9c5.1 0 8.5-3.4 8.5-8.5v-51.2c0-5-3.4-8.5-8.5-8.5zm-210.6-84c8.9-9.2 14.3-21.7 14.3-35.4s-5.5-26.2-14.3-35.4c13-2.9 24.1-10.9 31.3-21.6L353 329.9l7.3 28.6c.2.4.4.8.7 1.1l10 37.3h-52c8.1-9.1 13.1-21 13.1-34.1.1-24.3-17-44.7-39.8-49.9zm95.4-183L322 147.8l-4.3-16.2 65.7-17.9 4.3 16.2zm4.6 16.1l39.2 148.4-66 17.7-33.6-126c-.6-4.9-1.9-9.7-3.8-14.1l-2.1-7.8 66.3-18.2zm-21.7 182.7l65.4-17 4.3 16.2-65.4 17.8-4.3-17zm17.1 66.5l-9-33.5 65.9-17.7 8.8 33.3-65.7 17.9zM370.6 64.1l8.5 32.2-66.5 17.8L304 82l66.6-17.9zm-320 97.3l-1.7-3.4H281c14.1 0 26.2 8.6 31.4 20.8l2.4 9.1c.2 1.4.3 2.8.3 4.2 0 18.8-15.4 34.1-34.1 34.1H48.9l1.7-3.4c11.1-18.7 11.1-42.6 0-61.4zM25 246.8l-1.7-3.4h232.1c18.8 0 34.1 15.4 34.1 34.1s-15.4 34.1-34.1 34.1H23.3l1.7-3.4c11.1-18.8 11.1-42.7 0-61.4zm25.6 85.3l-1.7-3.4H281c18.8 0 34.1 15.4 34.1 34.1s-15.4 34.1-34.1 34.1H48.9l1.7-3.4c11.1-18.7 11.1-42.6 0-61.4zm443.8 116H16.5V414h477.8l.1 34.1z" transform="translate(1 1)"/><path d="M93.3 371.3H281c5.1 0 8.5-3.4 8.5-8.5s-3.4-8.5-8.5-8.5H93.3c-5.1 0-8.5 3.4-8.5 8.5s3.4 8.5 8.5 8.5zM67.7 286h187.7c5.1 0 8.5-3.4 8.5-8.5s-3.4-8.5-8.5-8.5H67.7c-5.1 0-8.5 3.4-8.5 8.5s3.4 8.5 8.5 8.5zm25.6-85.3H281c5.1 0 8.5-3.4 8.5-8.5s-3.4-8.5-8.5-8.5H93.3c-5.1 0-8.5 3.4-8.5 8.5s3.4 8.5 8.5 8.5zm264.5-17.9l26.5 99c1.7 3.4 5.1 6 8.5 6 0 0 .9 0 1.7-.9 4.3-.9 6.8-6 6-10.2L374 178.5c-.9-4.3-6-6.8-10.2-6s-6.8 6-6 10.3z" transform="translate(1 1)"/></svg>