<svg id="Layer_1" xmlns="http://www.w3.org/2000/svg" width="512.9" height="512.9" viewBox="0 0 512.9 512.9"><style>.st0{fill:#084aa3}</style><path d="M195.3 340.7h128c5.1 0 8.5-3.4 8.5-8.5s-3.4-8.5-8.5-8.5v-76.8c0-5.1-3.4-8.5-8.5-8.5H195.3c-5.1 0-8.5 3.4-8.5 8.5v76.8c-5.1 0-8.5 3.4-8.5 8.5s3.4 8.5 8.5 8.5h8.5zm68.2-17.1V298h42.7v25.6h-42.7zm42.7-42.7h-42.7v-25.6h42.7v25.6zm-59.7-25.6v25.6h-42.7v-25.6h42.7zM203.8 298h42.7v25.6h-42.7V298z" transform="translate(1 1)"/><path d="M506.7 222l-131.4-65.7V120l12.8 6.4c.9.9 1.7.9 3.4.9s3.4-.9 4.3-.9c2.6-1.7 4.3-5.1 4.3-7.7V76.1c0-3.4-1.7-6-4.3-7.7L259.3.2c-2.6-.9-5.1-.9-7.7 0L115.1 68.4c-3.4 1.7-5.1 4.3-5.1 7.7v42.7c0 2.6 1.7 6 3.4 7.7 2.6.9 6 1.7 8.5 0l13.7-6.8v36.7L4.1 222c-3.4 1.7-5.1 4.3-5.1 7.7v42.7c0 2.6 1.7 6 4.3 7.7.9.9 2.6.9 4.3.9s2.6 0 4.3-.9l12.8-6.4v229.1c0 5.1 3.4 8.5 8.5 8.5h443.6c5.1 0 8.5-3.4 9.4-8.5V273.7l12.8 6.4c.9.9 1.7.9 3.4.9s3.4 0 5.1-.9c2.6-1.7 4.3-5.1 4.3-7.7v-42.7c.1-3.4-2.5-6-5.1-7.7zM375.3 434.5h50.3v25.6h-50.3v-25.6zm50.4-17h-50.3v-25.6h50.3v25.6zm-50.4-93.9h50.3v25.6h-50.3v-25.6zm50.4-17.1h-50.3v-25.6h50.3v25.6zM127 81.2l128-64 128 64v23.9l-11.1-5.6c-.5-.5-1.1-.9-1.7-1.3L259.3 42.8c-.4-.1-.9-.3-1.3-.3-.7-.5-1.6-.5-3-.5-1.7 0-2.6 0-3.4.9L140.7 98.3l-13.7 6.8V81.2zm8.5 225.3H84.3v-25.6h51.2v25.6zm-51.2 17.1h51.2v25.6H84.3v-25.6zm51.2 93.9H84.3v-25.6h51.2v25.6zm-51.2 17h51.2v25.6H84.3v-25.6zM16.1 234.8l119.5-59.7V199L29.7 251.9 16 258.7v-23.9h.1zm25.6 30.3l93.9-46.9v45.7H75.8c-5.1 0-8.5 3.4-8.5 8.5v76.8c-5.1 0-8.5 3.4-8.5 8.5s3.4 8.5 8.5 8.5h68.2v8.5H75.8c-5.1 0-8.5 3.4-8.5 8.5V460c-5.1 0-8.5 3.4-8.5 8.5s3.4 8.5 8.5 8.5h68.2v17.1H41.7v-229zm110.9 203.6V208c.6-1.1.9-2.3.9-3.7v-42.7c0-1.4-.3-2.7-.9-3.8v-46.5L255 59.9l102.4 51.2v383.1h-42.7V383.3c0-5.1-3.4-8.5-8.5-8.5H203.8c-5.1 0-8.5 3.4-8.5 8.5v110.9h-42.7v-25.5zm59.7-76.8h34.1v42.7c-5.1 0-8.5 3.4-8.5 8.5s3.4 8.5 8.5 8.5v42.7h-34.1V391.9zm51.2 102.4v-42.7c5.1 0 8.5-3.4 8.5-8.5s-3.4-8.5-8.5-8.5v-42.7h34.1v102.4h-34.1zm204.8 0h-93v-17.1h67.4c5.1 0 8.5-3.4 8.5-8.5s-3.4-8.5-8.5-8.5v-76.8c0-5.1-3.4-8.5-8.5-8.5h-58.9v-8.5h67.4c5.1 0 8.5-3.4 8.5-8.5s-3.4-8.5-8.5-8.5v-76.8c0-5.1-3.4-8.5-8.5-8.5h-58.9v-45.7l49.9 25 43.1 21.6v229.3zm25.6-235.6l-11.1-5.6c-.5-.5-1.1-.9-1.7-1.3L375.3 199v-23.5l118.6 59.3v23.9z" transform="translate(1 1)"/><path class="st0" d="M240 104.9h31v105.2h-31z"/><path class="st0" d="M201.7 142h107.7v31H201.7z"/></svg>