<svg id="Capa_1" xmlns="http://www.w3.org/2000/svg" width="60" height="60" viewBox="0 0 60 60"><style>.st0{fill:#084aa3}</style><path class="st0" d="M14.2 15.1S13 34.6 15.9 39s6.9 9.7 8.8 11 5.3 2.6 5.3 2.6 5.3-2.3 8.9-6.3c3.6-4 6.8-11.5 7-14.6s.2-15.4 0-16.2C45.8 14.8 30.1 9.1 30 9s-15.8 6.1-15.8 6.1z"/><path d="M52 8C37.4 8 30.9.4 30.8.3c-.4-.5-1.2-.5-1.5 0C29.2.4 22.7 8 8 8c-.6 0-1 .4-1 1v19.1c0 10.4 4.7 20.3 12.5 26.5 3.2 2.5 6.6 4.3 10.2 5.4h.6c3.6-1.1 7-2.9 10.2-5.4C48.3 48.4 53 38.5 53 28.1V9c0-.6-.5-1-1-1zm-1 20.1c0 9.8-4.4 19.2-11.8 24.9-2.9 2.3-6 3.9-9.2 4.9-3.2-1-6.3-2.7-9.2-4.9C13.4 47.2 9 37.9 9 28.1V10c12.2-.3 18.9-5.5 21-7.5 2.1 2 8.8 7.3 21 7.5v18.1z"/><path d="M29.4 8c-3 2-8.2 4.7-15.6 5.6-.5.1-.9.5-.9 1v13.5c0 8.6 3.8 16.8 10.3 21.8 2 1.6 4.2 2.8 6.4 3.7.1 0 .2.1.4.1s.2 0 .4-.1c2.2-.9 4.4-2.1 6.4-3.7 6.4-5 10.3-13.2 10.3-21.8V14.6c0-.5-.4-.9-.9-1-7.5-.9-12.6-3.6-15.6-5.6-.4-.2-.8-.2-1.2 0zM45 15.5v12.6c0 8-3.5 15.6-9.5 20.2-1.8 1.4-3.6 2.5-5.5 3.3-1.9-.8-3.8-1.9-5.5-3.3-6-4.7-9.5-12.2-9.5-20.2V15.5c6.9-1 11.9-3.4 15-5.5 3.1 2 8.1 4.5 15 5.5z"/><path d="M20.7 29.3c-.4-.4-1-.4-1.4 0s-.4 1 0 1.4l8 8c.2.2.4.3.7.3.3 0 .5-.1.7-.3l14-16c.4-.4.3-1-.1-1.4-.4-.4-1-.3-1.4.1L27.9 36.5l-7.2-7.2z"/></svg>