<svg id="Capa_1" xmlns="http://www.w3.org/2000/svg" width="58.3" height="58.3" viewBox="0 0 58.3 58.3"><style>.st0{fill:#084aa3}</style><path class="st0" d="M35.1 48.8L50.6 33l5.6 4.4-16 16.8zM18.3 1.1h8.8v5.4h-8.8z"/><path d="M56.3 35.7l-2.8-2.8c-1.1-1.1-3.1-1.1-4.2 0L33.8 48.3 31.7 56l-.5.5c-.4.4-.4 1 0 1.4.2.2.4.3.7.3.3 0 .5-.1.7-.3l.5-.5 7.8-2.1 15.4-15.4c1.1-1.1 1.1-3 0-4.2zM36.1 48.8l10.2-10.2 4.2 4.2L40.4 53l-4.3-4.2zm-.9 1.9l3.2 3.2-4.4 1.2 1.2-4.4zm19.6-12.2L52 41.4l-4.2-4.2 2.8-2.8c.4-.4 1-.4 1.4 0l2.8 2.8c.4.3.4.9 0 1.3zM8.1 36h26c.6 0 1-.4 1-1s-.4-1-1-1h-26c-.6 0-1 .4-1 1s.5 1 1 1zm22 4h-22c-.6 0-1 .4-1 1s.4 1 1 1h22c.6 0 1-.4 1-1s-.4-1-1-1zm-22-22h13c.6 0 1-.4 1-1s-.4-1-1-1h-13c-.6 0-1 .4-1 1s.5 1 1 1zm13 30c.6 0 1-.4 1-1s-.4-1-1-1h-13c-.6 0-1 .4-1 1s.4 1 1 1h13zm16-26h-29c-.6 0-1 .4-1 1s.4 1 1 1h29c.6 0 1-.4 1-1s-.4-1-1-1zm-29 8h14c.6 0 1-.4 1-1s-.4-1-1-1h-14c-.6 0-1 .4-1 1s.5 1 1 1zm30-1c0-.6-.4-1-1-1h-7c-.6 0-1 .4-1 1s.4 1 1 1h7c.6 0 1-.4 1-1zm-11.3.7c.2-.2.3-.5.3-.7s-.1-.5-.3-.7c-.4-.4-1-.4-1.4 0-.2.2-.3.5-.3.7 0 .3.1.5.3.7.2.2.5.3.7.3.3 0 .6-.1.7-.3z"/><path d="M26.1 56h-23V8h7v2c0 .6.4 1 1 1h23c.6 0 1-.4 1-1V8h7v22c0 .6.4 1 1 1s1-.4 1-1V7c0-.6-.4-1-1-1h-8V4c0-.6-.4-1-1-1h-6V1c0-.6-.4-1-1-1h-9c-.6 0-1 .4-1 1v2h-6c-.6 0-1 .4-1 1v2h-8c-.6 0-1 .4-1 1v50c0 .6.4 1 1 1h24c.6 0 1-.4 1-1s-.4-1-1-1zm-7-54h7v4h-7V2zm-7 3h5v2c0 .6.4 1 1 1h9c.6 0 1-.4 1-1V5h5v4h-21V5z"/></svg>