<svg id="Layer_1" xmlns="http://www.w3.org/2000/svg" width="512" height="512" viewBox="0 0 512 512"><style>.st0{fill:#084aa3}</style><path class="st0" d="M55 153.6h83.4V237H55zM129 284h66l-56.6 182H68z"/><path d="M319 70.7l-73.4 52.9c-11.9 8.5-21.3 11.9-33.3 11.9-5.1 0-8.5 3.4-8.5 8.5s3.4 8.5 8.5 8.5c15.4 0 28.2-4.3 42.7-15.4l73.4-52.9c3.4-2.6 4.3-7.7 2.6-11.9-2.6-3.3-8.6-4.2-12-1.6z" transform="translate(1 1)"/><path d="M374.5 144.1H366V63.9c0-17.1-13.7-30.7-30.7-30.7h-13.7c-6 0-12.8 1.7-17.9 6l-78.5 57.2c-5.1 3.4-10.2 5.1-16.2 5.1H41.7C17.8 101.4-1 120.2-1 144.1v102.4c0 23.9 18.8 42.7 42.7 42.7H115L58.7 465.8c0 2.6 0 5.1 1.7 7.7 1.7 1.7 4.3 3.4 6.8 3.4h68.3c3.4 0 6.8-2.6 8.5-6l17.1-53.8h42.6c5.1 0 8.5-3.4 8.5-8.5v-68.3c0-5.1-3.4-8.5-8.5-8.5h-15.5l13.6-42.7h5.3c5.1 0 11.1 1.7 15.4 5.1l81.1 57.2c5.1 4.3 11.1 6 17.9 6h13.7c17.1 0 30.7-13.7 30.7-30.7v-80.2h8.5c28.2 0 51.2-23 51.2-51.2s-23-51.2-51.1-51.2zM195.3 348.9v51.2h-28.7l16.3-51.2h12.4zm-25.7-14.2c-.8.9-1.3 1.9-1.6 3L146.6 406c-.2.6-.4 1.2-.4 1.8l-16.6 51.9H79.2L133.8 289h50.3l-14.5 45.7zm179.3-8c0 7.7-6 13.7-13.7 13.7h-13.7c-2.6 0-5.1-.9-7.7-2.6l-81.1-57.2c-7.7-6-16.2-8.5-25.6-8.5H41.7c-14.5 0-25.6-11.1-25.6-25.6V144.1c0-14.5 11.1-25.6 25.6-25.6h168.1c9.4 0 17.9-3.4 25.6-8.5l78.5-57.2c1.7-1.7 5.1-2.6 7.7-2.6h13.7c7.7 0 13.7 6 13.7 13.7v174l-.1 88.8zm25.6-97.3H366v-68.3h8.5c18.8 0 34.1 15.4 34.1 34.1s-15.4 34.2-34.1 34.2z" transform="translate(1 1)"/><path d="M135.5 144.1H50.2c-5.1 0-8.5 3.4-8.5 8.5v85.3c0 5.1 3.4 8.5 8.5 8.5h85.3c5.1 0 8.5-3.4 8.5-8.5v-85.3c.1-5.1-3.3-8.5-8.5-8.5zm-8.5 85.3H58.7v-68.3H127v68.3zM429.1 70.7c-4.3-1.7-9.4 0-11.1 4.3s0 9.4 4.3 11.1c43.5 18.8 71.7 61.4 71.7 109.2s-28.2 90.5-71.7 109.2c-4.3 1.7-6 6.8-4.3 11.1.9 3.4 4.3 5.1 7.7 5.1h3.4c49.5-22.2 81.9-70.8 81.9-125.4S478.6 92 429.1 70.7z" transform="translate(1 1)"/><path d="M420.5 256.7c-3.4 2.6-4.3 8.5-1.7 11.9 1.7 2.6 4.3 3.4 6.8 3.4 1.7 0 3.4-.9 5.1-1.7 23.9-17.9 37.5-45.2 37.5-75.1 0-29-13.7-57.2-37.5-75.1-3.4-2.6-9.4-1.7-11.9 1.7s-1.7 9.4 1.7 11.9c19.6 14.5 30.7 36.7 30.7 61.4.1 24.9-11 47.1-30.7 61.6z" transform="translate(1 1)"/></svg>