<svg xmlns="http://www.w3.org/2000/svg" viewBox="0 0 490 490"><path d="M480 277.715h-38.756v-38.859c0-5.521-4.478-10-10-10H255v-23.91h74.56c5.523 0 10-4.477 10-10V104.78c0-5.521-4.477-10-10-10H160.438c-5.522 0-10 4.479-10 10v90.166c0 5.523 4.478 10 10 10H235v23.91H58.756c-5.522 0-10 4.479-10 10v38.859H10c-5.523 0-10 4.477-10 10v97.506c0 5.521 4.477 10 10 10h97.51c5.523 0 10-4.479 10-10v-97.506c0-5.523-4.477-10-10-10H68.756v-28.859H235v28.859h-38.758c-5.523 0-10 4.477-10 10v97.506c0 5.521 4.477 10 10 10h97.514c5.522 0 10-4.479 10-10v-97.506c0-5.523-4.478-10-10-10H255v-28.859h166.244v28.859h-38.758c-5.522 0-10 4.477-10 10v97.506c0 5.521 4.478 10 10 10H480c5.522 0 10-4.479 10-10v-97.506c0-5.524-4.478-10-10-10zM170.438 114.779H319.56v70.166H170.438v-70.166zM97.51 375.221H20v-77.506h77.51v77.506zm186.246 0h-77.514v-77.506h77.514v77.506zm186.244 0h-77.514v-77.506H470v77.506z"/></svg>