<svg xmlns="http://www.w3.org/2000/svg" width="550.499" height="550.499" viewBox="0 0 550.499 550.499"><path d="M66.055 437.61c1.373-7.739 5.144-14.342 11.025-19.486 5.144-5.881 11.708-9.817 19.847-11.394 14.656-2.839 26.458 1.835 36.024 11.394 9.928 9.936 13.919 21.306 10.657 35.287-1.882 8.077-5.144 14.703-10.657 20.216-5.512 5.512-12.186 8.892-20.215 10.664-13.667 3.011-25.171-.564-35.655-10.664-9.74-9.387-13.692-20.969-11.026-36.017zM47.674 264.485c1.937 10.578 12.79 18.043 23.524 15.801 56.169-11.724 112.746 5.606 153.647 45.951 40.337 39.788 57.251 96.646 45.944 152.533-1.561 7.708.368 14.342 5.144 19.118 3.678 2.571 7.355 4.398 10.657 5.144 11.394 2.564 21.713-4.47 23.893-15.801 6.649-34.62 5.145-68.738-4.775-102.183-9.928-33.452-27.571-62.857-52.193-87.488-24.991-24.991-54.467-42.415-88.217-52.562-33.515-10.068-67.563-11.402-101.814-4.775-11.332 2.196-17.911 12.774-15.81 24.262z"/><path d="M25.993 429.887c-5.74 26.418 3.215 53.385 22.418 72.408 19.024 18.844 45.528 26.968 72.409 21.689 31.202-6.124 56.106-31.342 62.489-62.488 5.748-28.042-1.105-52.193-21.689-72.777-18.741-18.741-45.928-26.74-72.409-22.051-15.056 2.666-29.029 9.551-41.537 22.051-11.033 11.033-18.239 25.312-21.681 41.168zm-2.204-284.499c2.195 11.339 12.405 17.957 23.156 15.809 48.069-9.613 95.549-6.932 141.877 6.986 46.665 14.014 86.743 37.859 120.932 72.041 34.55 34.55 58.757 74.996 72.777 121.661 13.919 46.336 16.17 93.369 6.25 141.147-.737 7.724 1.475 13.966 6.25 18.749 4.406 3.31 7.716 5.145 10.288 5.513 10.656 2.572 21.329-4.524 23.524-15.809 10.68-54.906 8.774-108.417-6.987-161.363-15.856-53.274-43.371-99.242-82.704-138.567-39.333-39.333-85.653-66.48-138.576-82.336-52.577-15.754-106.167-18.075-160.994-7.716-11.331 2.141-18.012 12.421-15.793 23.885z"/><path d="M.264 33.285C1.84 43.981 13.783 51.32 24.526 49.086c67.187-13.942 133.063-10.288 197.748 9.19 64.692 19.486 120.838 53.385 168.71 101.453 47.692 47.873 81.553 104.034 101.078 169.08 19.431 64.708 22.732 130.106 9.559 196.649-1.529 7.7.368 13.966 5.513 19.11 4.046 2.94 7.355 4.775 10.288 5.144 11.394 2.572 22.042-4.478 24.262-15.801 14.326-73.216 11.394-145.562-10.288-216.865-21.689-71.312-58.718-133.518-111.742-186.723-52.469-52.655-114.731-89.517-185.987-111.011C162.31-2.205 90.019-5.303 16.802 9.023 5.479 11.243-1.469 21.555.264 33.285z"/></svg>